<?xml version="1.0" encoding="UTF-8"?>
<!--Generator: Apple Native CoreSVG 149-->
<!DOCTYPE svg
PUBLIC "-//W3C//DTD SVG 1.1//EN"
       "http://www.w3.org/Graphics/SVG/1.1/DTD/svg11.dtd">
<svg version="1.1" xmlns="http://www.w3.org/2000/svg" xmlns:xlink="http://www.w3.org/1999/xlink" width="3300" height="2200">
 <!--glyph: "uni10027F.medium", point size: 100.000000, font version: "Version 16.0d18e1", template writer version: "8"-->
 <g id="Notes">
  <rect height="2200" id="artboard" style="fill:white;opacity:1" width="3300" x="0" y="0"/>
  <line id="" style="fill:none;stroke:black;opacity:1;stroke-width:0.5;" x1="263" x2="3036" y1="292" y2="292"/>
  <text style="stroke:none;fill:black;font-family:-apple-system,&quot;SF Pro Display&quot;,&quot;SF Pro Text&quot;,Helvetica,sans-serif;font-weight:bold;" transform="matrix(1 0 0 1 263 322)">Weight/Scale Variations</text>
  <text style="stroke:none;fill:black;font-family:-apple-system,&quot;SF Pro Display&quot;,&quot;SF Pro Text&quot;,Helvetica,sans-serif;text-anchor:middle;" transform="matrix(1 0 0 1 559.711 322)">Ultralight</text>
  <text style="stroke:none;fill:black;font-family:-apple-system,&quot;SF Pro Display&quot;,&quot;SF Pro Text&quot;,Helvetica,sans-serif;text-anchor:middle;" transform="matrix(1 0 0 1 856.422 322)">Thin</text>
  <text style="stroke:none;fill:black;font-family:-apple-system,&quot;SF Pro Display&quot;,&quot;SF Pro Text&quot;,Helvetica,sans-serif;text-anchor:middle;" transform="matrix(1 0 0 1 1153.13 322)">Light</text>
  <text style="stroke:none;fill:black;font-family:-apple-system,&quot;SF Pro Display&quot;,&quot;SF Pro Text&quot;,Helvetica,sans-serif;text-anchor:middle;" transform="matrix(1 0 0 1 1449.84 322)">Regular</text>
  <text style="stroke:none;fill:black;font-family:-apple-system,&quot;SF Pro Display&quot;,&quot;SF Pro Text&quot;,Helvetica,sans-serif;text-anchor:middle;" transform="matrix(1 0 0 1 1746.56 322)">Medium</text>
  <text style="stroke:none;fill:black;font-family:-apple-system,&quot;SF Pro Display&quot;,&quot;SF Pro Text&quot;,Helvetica,sans-serif;text-anchor:middle;" transform="matrix(1 0 0 1 2043.27 322)">Semibold</text>
  <text style="stroke:none;fill:black;font-family:-apple-system,&quot;SF Pro Display&quot;,&quot;SF Pro Text&quot;,Helvetica,sans-serif;text-anchor:middle;" transform="matrix(1 0 0 1 2339.98 322)">Bold</text>
  <text style="stroke:none;fill:black;font-family:-apple-system,&quot;SF Pro Display&quot;,&quot;SF Pro Text&quot;,Helvetica,sans-serif;text-anchor:middle;" transform="matrix(1 0 0 1 2636.69 322)">Heavy</text>
  <text style="stroke:none;fill:black;font-family:-apple-system,&quot;SF Pro Display&quot;,&quot;SF Pro Text&quot;,Helvetica,sans-serif;text-anchor:middle;" transform="matrix(1 0 0 1 2933.4 322)">Black</text>
  <line id="" style="fill:none;stroke:black;opacity:1;stroke-width:0.5;" x1="263" x2="3036" y1="1903" y2="1903"/>
  <g id="" transform="matrix(1 0 0 1 263 1933)">
   <path d="M9.24805 0.830078C13.5547 0.830078 17.1387-2.74414 17.1387-7.05078C17.1387-11.3574 13.5449-14.9316 9.23828-14.9316C4.94141-14.9316 1.36719-11.3574 1.36719-7.05078C1.36719-2.74414 4.95117 0.830078 9.24805 0.830078ZM9.24805-0.654297C5.70312-0.654297 2.87109-3.49609 2.87109-7.05078C2.87109-10.6055 5.69336-13.4473 9.23828-13.4473C12.793-13.4473 15.6348-10.6055 15.6445-7.05078C15.6543-3.49609 12.8027-0.654297 9.24805-0.654297ZM6.39648-6.31836L8.50586-6.31836L8.50586-4.19922C8.50586-3.75977 8.79883-3.45703 9.22852-3.45703C9.67773-3.45703 9.9707-3.75977 9.9707-4.19922L9.9707-6.31836L12.0996-6.31836C12.5391-6.31836 12.8418-6.61133 12.8418-7.04102C12.8418-7.48047 12.5391-7.7832 12.0996-7.7832L9.9707-7.7832L9.9707-9.89258C9.9707-10.3418 9.67773-10.6445 9.22852-10.6445C8.79883-10.6445 8.50586-10.3418 8.50586-9.89258L8.50586-7.7832L6.39648-7.7832C5.94727-7.7832 5.64453-7.48047 5.64453-7.04102C5.64453-6.61133 5.94727-6.31836 6.39648-6.31836Z"/>
  </g>
  <g id="" transform="matrix(1 0 0 1 281.506 1933)">
   <path d="M11.709 2.91016C17.1582 2.91016 21.6699-1.61133 21.6699-7.05078C21.6699-12.5 17.1484-17.0117 11.6992-17.0117C6.25977-17.0117 1.74805-12.5 1.74805-7.05078C1.74805-1.61133 6.26953 2.91016 11.709 2.91016ZM11.709 1.25C7.09961 1.25 3.41797-2.44141 3.41797-7.05078C3.41797-11.6602 7.08984-15.3516 11.6992-15.3516C16.3086-15.3516 20-11.6602 20.0098-7.05078C20.0195-2.44141 16.3184 1.25 11.709 1.25ZM7.98828-6.23047L10.8789-6.23047L10.8789-3.32031C10.8789-2.83203 11.2109-2.5 11.6895-2.5C12.1777-2.5 12.5195-2.83203 12.5195-3.32031L12.5195-6.23047L15.4297-6.23047C15.918-6.23047 16.25-6.5625 16.25-7.04102C16.25-7.5293 15.918-7.87109 15.4297-7.87109L12.5195-7.87109L12.5195-10.7617C12.5195-11.2695 12.1777-11.6016 11.6895-11.6016C11.2109-11.6016 10.8789-11.2598 10.8789-10.7617L10.8789-7.87109L7.98828-7.87109C7.48047-7.87109 7.14844-7.5293 7.14844-7.04102C7.14844-6.5625 7.49023-6.23047 7.98828-6.23047Z"/>
  </g>
  <g id="" transform="matrix(1 0 0 1 304.924 1933)">
   <path d="M14.9707 5.66406C21.9336 5.66406 27.6953-0.0976562 27.6953-7.05078C27.6953-14.0137 21.9238-19.7754 14.9609-19.7754C8.00781-19.7754 2.25586-14.0137 2.25586-7.05078C2.25586-0.0976562 8.01758 5.66406 14.9707 5.66406ZM14.9707 3.84766C8.93555 3.84766 4.08203-1.01562 4.08203-7.05078C4.08203-13.0957 8.92578-17.9492 14.9609-17.9492C21.0059-17.9492 25.8594-13.0957 25.8691-7.05078C25.8789-1.01562 21.0156 3.84766 14.9707 3.84766ZM10.0586-6.14258L14.0625-6.14258L14.0625-2.12891C14.0625-1.5918 14.4336-1.2207 14.9512-1.2207C15.4883-1.2207 15.8594-1.5918 15.8594-2.12891L15.8594-6.14258L19.8828-6.14258C20.4102-6.14258 20.791-6.51367 20.791-7.03125C20.791-7.56836 20.4199-7.94922 19.8828-7.94922L15.8594-7.94922L15.8594-11.9531C15.8594-12.5098 15.4883-12.8809 14.9512-12.8809C14.4336-12.8809 14.0625-12.5 14.0625-11.9531L14.0625-7.94922L10.0586-7.94922C9.50195-7.94922 9.13086-7.56836 9.13086-7.03125C9.13086-6.51367 9.51172-6.14258 10.0586-6.14258Z"/>
  </g>
  <text style="stroke:none;fill:black;font-family:-apple-system,&quot;SF Pro Display&quot;,&quot;SF Pro Text&quot;,Helvetica,sans-serif;font-weight:bold;" transform="matrix(1 0 0 1 263 1953)">Design Variations</text>
  <text style="stroke:none;fill:black;font-family:-apple-system,&quot;SF Pro Display&quot;,&quot;SF Pro Text&quot;,Helvetica,sans-serif;" transform="matrix(1 0 0 1 263 1971)">Symbols are supported in up to nine weights and three scales.</text>
  <text style="stroke:none;fill:black;font-family:-apple-system,&quot;SF Pro Display&quot;,&quot;SF Pro Text&quot;,Helvetica,sans-serif;" transform="matrix(1 0 0 1 263 1989)">For optimal layout with text and other symbols, vertically align</text>
  <text style="stroke:none;fill:black;font-family:-apple-system,&quot;SF Pro Display&quot;,&quot;SF Pro Text&quot;,Helvetica,sans-serif;" transform="matrix(1 0 0 1 263 2007)">symbols with the adjacent text.</text>
  <line id="" style="fill:none;stroke:#00AEEF;stroke-width:0.5;opacity:1.0;" x1="776" x2="776" y1="1919" y2="1933"/>
  <g id="" transform="matrix(1 0 0 1 776 1933)">
   <path d="M3.31055 0.126953C3.82812 0.126953 4.08203-0.0683594 4.26758-0.605469L5.52734-4.0625L11.2891-4.0625L12.5488-0.605469C12.7344-0.0683594 12.9883 0.126953 13.4961 0.126953C14.0137 0.126953 14.3457-0.185547 14.3457-0.673828C14.3457-0.839844 14.3164-0.986328 14.2383-1.20117L9.6582-13.3887C9.43359-13.9941 9.0332-14.2871 8.4082-14.2871C7.80273-14.2871 7.39258-13.9941 7.17773-13.3984L2.59766-1.19141C2.51953-0.976562 2.49023-0.830078 2.49023-0.664062C2.49023-0.175781 2.80273 0.126953 3.31055 0.126953ZM6.00586-5.53711L8.37891-12.1094L8.42773-12.1094L10.8008-5.53711Z"/>
  </g>
  <line id="" style="fill:none;stroke:#00AEEF;stroke-width:0.5;opacity:1.0;" x1="792.836" x2="792.836" y1="1919" y2="1933"/>
  <text style="stroke:none;fill:black;font-family:-apple-system,&quot;SF Pro Display&quot;,&quot;SF Pro Text&quot;,Helvetica,sans-serif;font-weight:bold;" transform="matrix(1 0 0 1 776 1953)">Margins</text>
  <text style="stroke:none;fill:black;font-family:-apple-system,&quot;SF Pro Display&quot;,&quot;SF Pro Text&quot;,Helvetica,sans-serif;" transform="matrix(1 0 0 1 776 1971)">Leading and trailing margins on the left and right side of each symbol</text>
  <text style="stroke:none;fill:black;font-family:-apple-system,&quot;SF Pro Display&quot;,&quot;SF Pro Text&quot;,Helvetica,sans-serif;" transform="matrix(1 0 0 1 776 1989)">can be adjusted by modifying the x-location of the margin guidelines.</text>
  <text style="stroke:none;fill:black;font-family:-apple-system,&quot;SF Pro Display&quot;,&quot;SF Pro Text&quot;,Helvetica,sans-serif;" transform="matrix(1 0 0 1 776 2007)">Modifications are automatically applied proportionally to all</text>
  <text style="stroke:none;fill:black;font-family:-apple-system,&quot;SF Pro Display&quot;,&quot;SF Pro Text&quot;,Helvetica,sans-serif;" transform="matrix(1 0 0 1 776 2025)">scales and weights.</text>
  <g id="" transform="matrix(1 0 0 1 1289 1933)">
   <path d="M2.8418 1.86523L4.54102 3.57422C5.40039 4.44336 6.38672 4.38477 7.31445 3.35938L17.4902-7.85156C17.7539-7.76367 18.0273-7.7832 18.3398-7.8418L19.4043-8.03711L20.0684-7.36328L20.0293-6.80664C19.9902-6.30859 20.1172-5.92773 20.6055-5.44922L21.3672-4.70703C21.8457-4.22852 22.4609-4.19922 22.9297-4.66797L25.8398-7.58789C26.3086-8.05664 26.2891-8.65234 25.8105-9.13086L25.0391-9.89258C24.5605-10.3711 24.1895-10.5273 23.7109-10.4883L23.1348-10.4395L22.4902-11.0742L22.7344-12.1973C22.8613-12.7637 22.7051-13.2031 22.1191-13.7891L19.9219-15.9766C16.582-19.2969 12.1484-19.2188 9.25781-16.3281C8.83789-15.918 8.80859-15.3418 9.04297-14.9512C9.27734-14.5898 9.73633-14.3555 10.3809-14.5215C11.8457-14.8633 13.3691-14.9219 14.7949-13.9844L14.209-12.5293C14.0137-12.0508 13.9844-11.6504 14.1113-11.2891L3.04688-0.898438C2.06055 0.0195312 1.98242 0.996094 2.8418 1.86523ZM10.752-15.957C13.1836-17.7344 16.4746-17.4316 18.7012-15.2051L21.1328-12.793C21.3672-12.5586 21.4062-12.373 21.3379-12.0312L21.0156-10.5469L22.5195-9.0625L23.5059-9.12109C23.7598-9.13086 23.8379-9.11133 24.0332-8.91602L24.6094-8.33984L22.168-5.89844L21.5918-6.47461C21.3965-6.66992 21.3672-6.74805 21.377-7.01172L21.4453-7.98828L19.9512-9.47266L18.4277-9.21875C18.1055-9.15039 17.959-9.17969 17.7148-9.41406L15.7129-11.416C15.459-11.6504 15.4297-11.8164 15.5859-12.1875L16.4648-14.2773C14.9023-15.7324 12.8711-16.3574 10.8398-15.7617C10.6836-15.7227 10.625-15.8496 10.752-15.957ZM5.27344 2.30469L4.10156 1.14258C3.63281 0.683594 3.74023 0.341797 4.14062-0.0195312L14.9512-10.1953L16.416-8.71094L6.42578 2.27539C6.07422 2.67578 5.74219 2.77344 5.27344 2.30469Z"/>
  </g>
  <text style="stroke:none;fill:black;font-family:-apple-system,&quot;SF Pro Display&quot;,&quot;SF Pro Text&quot;,Helvetica,sans-serif;font-weight:bold;" transform="matrix(1 0 0 1 1289 1953)">Exporting</text>
  <text style="stroke:none;fill:black;font-family:-apple-system,&quot;SF Pro Display&quot;,&quot;SF Pro Text&quot;,Helvetica,sans-serif;" transform="matrix(1 0 0 1 1289 1971)">Symbols should be outlined when exporting to ensure the</text>
  <text style="stroke:none;fill:black;font-family:-apple-system,&quot;SF Pro Display&quot;,&quot;SF Pro Text&quot;,Helvetica,sans-serif;" transform="matrix(1 0 0 1 1289 1989)">design is preserved when submitting to Xcode.</text>
  <text id="template-version" style="stroke:none;fill:black;font-family:-apple-system,&quot;SF Pro Display&quot;,&quot;SF Pro Text&quot;,Helvetica,sans-serif;text-anchor:end;" transform="matrix(1 0 0 1 3036 1933)">Template v.2.0</text>
  <text style="stroke:none;fill:black;font-family:-apple-system,&quot;SF Pro Display&quot;,&quot;SF Pro Text&quot;,Helvetica,sans-serif;text-anchor:end;" transform="matrix(1 0 0 1 3036 1951)">Requires Xcode 12 or greater</text>
  <text style="stroke:none;fill:black;font-family:-apple-system,&quot;SF Pro Display&quot;,&quot;SF Pro Text&quot;,Helvetica,sans-serif;text-anchor:end;" transform="matrix(1 0 0 1 3036 1969)">Generated from hand.thumbsup</text>
  <text style="stroke:none;fill:black;font-family:-apple-system,&quot;SF Pro Display&quot;,&quot;SF Pro Text&quot;,Helvetica,sans-serif;text-anchor:end;" transform="matrix(1 0 0 1 3036 1987)">Typeset at 100 points</text>
  <text style="stroke:none;fill:black;font-family:-apple-system,&quot;SF Pro Display&quot;,&quot;SF Pro Text&quot;,Helvetica,sans-serif;" transform="matrix(1 0 0 1 263 726)">Small</text>
  <text style="stroke:none;fill:black;font-family:-apple-system,&quot;SF Pro Display&quot;,&quot;SF Pro Text&quot;,Helvetica,sans-serif;" transform="matrix(1 0 0 1 263 1156)">Medium</text>
  <text style="stroke:none;fill:black;font-family:-apple-system,&quot;SF Pro Display&quot;,&quot;SF Pro Text&quot;,Helvetica,sans-serif;" transform="matrix(1 0 0 1 263 1586)">Large</text>
 </g>
 <g id="Guides">
  <g id="H-reference" style="fill:#27AAE1;stroke:none;" transform="matrix(1 0 0 1 339 696)">
   <path d="M0.976562 0L3.66211 0L12.9883-24.4629L45.752-24.4629L55.127 0L57.7637 0L30.6152-70.459L28.125-70.459ZM29.3457-67.1387L29.4434-67.1387L44.873-26.709L13.8672-26.709Z"/>
  </g>
  <line id="Baseline-S" style="fill:none;stroke:#27AAE1;opacity:1;stroke-width:0.5;" x1="263" x2="3036" y1="696" y2="696"/>
  <line id="Capline-S" style="fill:none;stroke:#27AAE1;opacity:1;stroke-width:0.5;" x1="263" x2="3036" y1="625.541" y2="625.541"/>
  <g id="H-reference" style="fill:#27AAE1;stroke:none;" transform="matrix(1 0 0 1 339 1126)">
   <path d="M0.976562 0L3.66211 0L12.9883-24.4629L45.752-24.4629L55.127 0L57.7637 0L30.6152-70.459L28.125-70.459ZM29.3457-67.1387L29.4434-67.1387L44.873-26.709L13.8672-26.709Z"/>
  </g>
  <line id="Baseline-M" style="fill:none;stroke:#27AAE1;opacity:1;stroke-width:0.5;" x1="263" x2="3036" y1="1126" y2="1126"/>
  <line id="Capline-M" style="fill:none;stroke:#27AAE1;opacity:1;stroke-width:0.5;" x1="263" x2="3036" y1="1055.54" y2="1055.54"/>
  <g id="H-reference" style="fill:#27AAE1;stroke:none;" transform="matrix(1 0 0 1 339 1556)">
   <path d="M0.976562 0L3.66211 0L12.9883-24.4629L45.752-24.4629L55.127 0L57.7637 0L30.6152-70.459L28.125-70.459ZM29.3457-67.1387L29.4434-67.1387L44.873-26.709L13.8672-26.709Z"/>
  </g>
  <line id="Baseline-L" style="fill:none;stroke:#27AAE1;opacity:1;stroke-width:0.5;" x1="263" x2="3036" y1="1556" y2="1556"/>
  <line id="Capline-L" style="fill:none;stroke:#27AAE1;opacity:1;stroke-width:0.5;" x1="263" x2="3036" y1="1485.54" y2="1485.54"/>
  <line id="left-margin" style="fill:none;stroke:#00AEEF;stroke-width:0.5;opacity:1.0;" x1="1389.57" x2="1389.57" y1="1030.79" y2="1150.12"/>
  <line id="right-margin" style="fill:none;stroke:#00AEEF;stroke-width:0.5;opacity:1.0;" x1="1510.12" x2="1510.12" y1="1030.79" y2="1150.12"/>
 </g>
 <g id="Symbols">
  <g id="Black-L" transform="matrix(1 0 0 1 2847.68 1556)">
   <path d="M11.1816-9.32617C11.1816 16.1621 27.002 36.2793 50.1953 36.2793L70.752 36.2793C79.834 40.5273 90.1367 42.7734 100.879 42.7734L109.961 42.7734C119.238 42.7734 126.807 42.1875 131.592 40.918C142.529 38.2812 149.805 29.7852 149.805 19.8242C149.805 18.7988 149.707 17.8223 149.414 16.7969C153.76 12.8418 156.152 7.37305 156.152 1.46484C156.152-0.878906 155.762-3.125 155.078-5.12695C157.91-8.69141 159.424-13.3301 159.424-18.1641C159.424-21.3379 158.789-24.2676 157.666-26.8066C159.326-30.0293 160.254-33.9355 160.254-38.2812C160.254-50.3906 151.367-59.375 139.355-59.375L117.041-59.375C116.504-59.375 116.016-59.668 116.26-60.4492C117.676-65.918 126.27-80.4688 126.27-93.3594C126.27-105.029 117.822-113.721 106.445-113.721C98.291-113.721 92.3828-109.424 87.3047-99.707C79.0039-83.5449 67.9199-69.1895 56.7871-55.1758L47.7051-55.1758C25.7812-55.1758 11.1816-35.1562 11.1816-9.32617ZM58.9355-10.3516C58.9355-22.998 61.7188-31.0547 70.2148-42.4805C79.8828-55.5176 93.457-71.3867 103.223-90.8691C104.102-92.627 104.785-93.1152 105.908-93.1152C107.178-93.1152 107.91-92.1387 107.91-90.6738C107.91-83.9355 97.4121-67.8711 97.4121-56.543C97.4121-47.4121 104.297-41.0156 114.941-41.0156L138.184-41.0156C140.332-41.0156 141.846-39.502 141.846-37.5C141.846-36.084 141.357-35.0586 140.088-33.6914C136.914-30.3223 136.426-24.6582 139.355-21.6797C140.479-20.2148 140.967-19.2383 140.967-18.1152C140.967-16.7969 140.234-15.625 138.721-14.5508C134.863-11.8652 133.789-6.68945 135.84-2.39258C136.572-0.878906 136.914 0.0488281 136.914 1.12305C136.914 3.02734 135.742 4.49219 133.496 5.76172C129.639 7.95898 128.467 13.1836 130.029 16.9434C130.664 18.457 130.762 18.8477 130.713 19.5801C130.713 21.1426 129.541 22.4609 126.562 23.1445C122.949 24.0234 116.943 24.4629 107.275 24.3652L101.025 24.3164C75.8789 24.0723 58.9355 10.3027 58.9355-10.3516ZM28.8574-9.32617C28.8574-24.1699 35.2539-35.5469 43.75-37.207C44.3848-37.2559 45.1172-37.3047 45.8008-37.4023C42.1875-29.0527 40.5273-20.2637 40.5273-9.86328C40.5273 0.976562 43.75 11.0352 50 19.6289C49.3164 19.6289 48.291 19.5801 47.4121 19.5312C36.8652 17.8223 28.8574 6.15234 28.8574-9.32617Z"/>
  </g>
  <g id="Heavy-L" transform="matrix(1 0 0 1 2553.22 1556)">
   <path d="M11.1816-10.1562C11.1816 14.2578 26.4648 33.6426 47.998 33.6426L68.6035 33.6426C77.4414 37.8418 87.5977 40.1855 98.3887 40.1855L107.373 40.1855C116.309 40.1855 123.633 39.5996 128.32 38.4277C138.672 35.8887 145.41 28.0762 145.41 18.75C145.41 17.5781 145.264 16.4551 144.922 15.332C149.219 11.5723 151.66 6.29883 151.66 0.585938C151.66-1.85547 151.221-4.19922 150.439-6.20117C153.32-9.57031 154.932-14.1113 154.932-18.8965C154.932-22.0215 154.248-25 153.027-27.4902C154.785-30.4688 155.713-34.3262 155.713-38.5254C155.713-49.8535 147.314-58.3984 136.035-58.3984L113.477-58.3984C112.549-58.3984 111.865-58.8379 112.061-59.8633C113.135-65.6738 122.217-80.5176 122.217-93.3105C122.217-104.15 114.453-112.207 103.906-112.207C96.2891-112.207 90.8691-108.154 86.084-99.0234C77.8809-83.1543 67.4805-69.4824 55.3223-54.1992L45.5566-54.1992C25.2441-54.1992 11.1816-34.9121 11.1816-10.1562ZM55.9082-11.0352C55.9082-23.877 58.7402-32.0801 67.2363-43.5059C76.8555-56.3965 90.2832-72.1191 99.9512-91.4062C101.172-93.8477 102.1-94.5312 103.516-94.5312C105.225-94.5312 106.25-93.2617 106.25-91.2598C106.25-83.6914 95.7031-67.8223 95.7031-56.8848C95.7031-48.291 102.295-42.4316 112.158-42.4316L135.156-42.4316C137.842-42.4316 139.746-40.4785 139.746-37.9395C139.746-36.1328 139.16-34.8633 137.646-33.3008C134.912-30.4688 134.521-25.7812 137.012-23.2422C138.281-21.5332 138.867-20.3125 138.867-18.8477C138.867-17.1387 137.988-15.5762 136.182-14.3066C132.861-12.0117 131.885-7.66602 133.691-3.90625C134.619-2.14844 135.059-1.07422 135.059 0.292969C135.059 2.58789 133.643 4.3457 130.908 5.85938C127.588 7.71484 126.611 11.9629 127.979 15.1855C128.809 17.1387 128.955 17.627 128.906 18.6035C128.906 20.5078 127.441 22.1191 124.023 22.9492C120.361 23.8281 114.404 24.2676 105.322 24.2188L98.5352 24.1211C73.0469 23.877 55.9082 9.81445 55.9082-11.0352ZM26.6602-10.1562C26.6602-25.4883 33.6914-37.3047 42.5293-38.5742C43.5547-38.623 44.6777-38.6719 45.7031-38.7207C41.6992-30.1758 39.8926-21.2891 39.8926-10.6445C39.8926 0.488281 43.457 10.6445 50.1953 18.9941C48.877 18.9941 47.3633 18.9453 45.8984 18.8965C35.1562 17.627 26.6602 5.51758 26.6602-10.1562Z"/>
  </g>
  <g id="Bold-L" transform="matrix(1 0 0 1 2259.02 1556)">
   <path d="M11.2305-11.084C11.2305 12.0605 25.8789 30.6641 45.6055 30.6641L66.1621 30.6641C74.7559 34.8633 84.7656 37.2559 95.6055 37.2559L104.443 37.2559C112.988 37.2559 120.117 36.7676 124.658 35.5957C134.277 33.2031 140.479 26.1719 140.479 17.5781C140.479 16.1621 140.234 14.8926 139.844 13.623C144.189 10.1562 146.68 5.12695 146.68-0.439453C146.68-2.92969 146.191-5.37109 145.312-7.37305C148.193-10.5469 149.902-14.9902 149.902-19.6777C149.902-22.8027 149.121-25.8301 147.852-28.2227C149.658-31.0059 150.684-34.7168 150.684-38.7695C150.684-49.2676 142.773-57.2754 132.373-57.2754L109.521-57.2754C108.154-57.2754 107.227-57.9102 107.373-59.1797C108.057-65.4297 117.676-80.5664 117.676-93.2617C117.676-103.174 110.645-110.498 101.025-110.498C94.043-110.498 89.1602-106.787 84.7168-98.2422C76.6602-82.7148 66.9922-69.7754 53.7109-53.1738L43.2129-53.1738C24.707-53.1738 11.2305-34.6191 11.2305-11.084ZM52.4902-11.7188C52.4902-24.8535 55.4199-33.2031 63.916-44.6289C73.4863-57.4219 86.7188-72.9004 96.2891-91.9434C97.9492-95.2637 99.1211-96.0938 100.879-96.0938C103.076-96.0938 104.443-94.5312 104.443-91.8945C104.443-83.4473 93.8477-67.7246 93.8477-57.2266C93.8477-49.2676 100.098-43.9941 109.033-43.9941L131.787-43.9941C135.01-43.9941 137.402-41.6016 137.402-38.3789C137.402-36.2305 136.719-34.668 134.912-32.9102C132.666-30.6152 132.373-27.0996 134.375-25C135.889-22.998 136.572-21.4844 136.572-19.6777C136.572-17.4805 135.498-15.5762 133.35-14.0137C130.615-12.1094 129.736-8.74023 131.299-5.61523C132.422-3.51562 132.959-2.29492 132.959-0.585938C132.959 2.09961 131.299 4.15039 127.979 5.9082C125.342 7.42188 124.512 10.5957 125.684 13.2324C126.709 15.6738 126.855 16.2598 126.855 17.4316C126.855 19.873 125.049 21.7773 121.191 22.7539C117.529 23.6328 111.572 24.0723 103.125 24.0234L95.7031 23.9258C69.9219 23.6816 52.4902 9.32617 52.4902-11.7188ZM24.1699-11.084C24.1699-26.9043 31.9336-39.2578 41.2109-40.0879C42.627-40.1367 44.0918-40.1367 45.5566-40.1855C41.1133-31.4453 39.209-22.4609 39.209-11.5723C39.209-0.0976562 43.1641 10.1562 50.3906 18.2617C48.4375 18.2617 46.2891 18.2617 44.2383 18.2129C33.2031 17.3828 24.1699 4.78516 24.1699-11.084Z"/>
  </g>
  <g id="Semibold-L" transform="matrix(1 0 0 1 1964.04 1556)">
   <path d="M11.2305-11.7676C11.2305 10.5469 25.4883 28.6133 43.9453 28.6133L64.502 28.6133C72.9004 32.8613 82.8125 35.2539 93.7012 35.2539L102.441 35.2539C110.742 35.2539 117.676 34.7656 122.168 33.6426C131.25 31.3965 137.061 24.8535 137.061 16.748C137.061 15.2344 136.816 13.8672 136.328 12.5C140.723 9.17969 143.213 4.29688 143.213-1.12305C143.213-3.71094 142.676-6.15234 141.748-8.20312C144.678-11.1816 146.387-15.625 146.387-20.2637C146.387-23.3398 145.605-26.416 144.287-28.7109C146.143-31.3477 147.217-34.9609 147.217-38.9648C147.217-48.877 139.648-56.4941 129.834-56.4941L106.787-56.4941C105.127-56.4941 104.053-57.2754 104.102-58.7402C104.541-65.2832 114.551-80.6152 114.551-93.2129C114.551-102.539 108.008-109.277 99.0723-109.277C92.4805-109.277 87.9883-105.859 83.7402-97.7051C75.8301-82.4219 66.6504-70.0195 52.5879-52.3926L41.5527-52.3926C24.3164-52.3926 11.2305-34.4238 11.2305-11.7676ZM50.1465-12.2559C50.1465-25.4883 53.125-34.0332 61.6211-45.4102C71.1426-58.1543 84.2773-73.4375 93.7988-92.334C95.7031-96.1914 97.0215-97.168 99.0723-97.168C101.562-97.168 103.174-95.4102 103.174-92.3828C103.174-83.252 92.5781-67.6758 92.5781-57.4707C92.5781-50 98.5352-45.1172 106.885-45.1172L129.443-45.1172C133.105-45.1172 135.791-42.334 135.791-38.7207C135.791-36.2305 135.01-34.5215 133.008-32.6172C131.152-30.7617 130.908-27.9785 132.568-26.2207C134.229-23.9746 134.961-22.3145 134.961-20.2148C134.961-17.7246 133.74-15.5273 131.396-13.8672C129.102-12.207 128.271-9.47266 129.639-6.73828C130.859-4.49219 131.494-3.17383 131.494-1.2207C131.494 1.75781 129.639 4.05273 125.977 5.95703C123.73 7.17773 123.096 9.66797 124.072 11.9141C125.244 14.6484 125.439 15.332 125.439 16.6504C125.439 19.3848 123.438 21.582 119.238 22.6074C115.576 23.4863 109.619 23.9258 101.611 23.877L93.75 23.7793C67.7734 23.5352 50.1465 8.93555 50.1465-12.2559ZM22.4121-11.7676C22.4121-27.8809 30.7129-40.625 40.2832-41.1133C41.9922-41.1621 43.75-41.1621 45.459-41.2109C40.7227-32.2754 38.7207-23.2422 38.7207-12.1582C38.7207-0.488281 42.9199 9.81445 50.5371 17.7734C48.0957 17.7734 45.5566 17.7734 43.0664 17.7246C31.8848 17.1875 22.4121 4.29688 22.4121-11.7676Z"/>
  </g>
  <g id="Medium-L" transform="matrix(1 0 0 1 1668.65 1556)">
   <path d="M11.2793-12.2559C11.2793 9.42383 25.1953 27.0508 42.6758 27.0508L63.2324 27.0508C71.4844 31.2988 81.3477 33.7402 92.2363 33.7402L100.928 33.7402C108.984 33.7402 115.82 33.3008 120.215 32.1777C129.004 29.9805 134.473 23.877 134.473 16.1133C134.473 14.502 134.229 13.0371 133.691 11.6211C138.086 8.44727 140.576 3.66211 140.576-1.61133C140.576-4.24805 140.039-6.78711 139.062-8.83789C141.992-11.6699 143.75-16.0645 143.75-20.6543C143.75-23.7305 142.969-26.8555 141.602-29.1016C143.457-31.6406 144.58-35.2051 144.58-39.1113C144.58-48.5352 137.305-55.9082 127.881-55.9082L104.736-55.9082C102.832-55.9082 101.611-56.7871 101.66-58.3984C101.904-65.1367 112.207-80.6641 112.207-93.2129C112.207-102.002 106.006-108.398 97.5586-108.398C91.3086-108.398 87.1094-105.127 83.0078-97.2656C75.1953-82.1777 66.4062-70.166 51.7578-51.8555L40.332-51.8555C23.9746-51.8555 11.2793-34.2773 11.2793-12.2559ZM48.3398-12.5977C48.3398-26.0254 51.3672-34.6191 59.9121-46.0449C69.3359-58.6914 82.4219-73.8281 91.8457-92.627C93.9941-96.9238 95.459-97.998 97.7051-97.998C100.439-97.998 102.197-96.0449 102.197-92.7246C102.197-83.1055 91.6016-67.627 91.6016-57.666C91.6016-50.4883 97.4121-45.8984 105.273-45.8984L127.686-45.8984C131.641-45.8984 134.57-42.9199 134.57-38.9648C134.57-36.2793 133.691-34.4238 131.592-32.373C129.98-30.8594 129.785-28.6621 131.201-27.0996C132.959-24.7559 133.74-22.9004 133.74-20.6543C133.74-17.9199 132.422-15.5273 129.932-13.7207C127.93-12.3047 127.148-10.0098 128.418-7.66602C129.736-5.22461 130.42-3.80859 130.42-1.70898C130.42 1.46484 128.418 3.95508 124.463 6.00586C122.559 7.03125 122.021 8.98438 122.9 10.8887C124.17 13.8672 124.365 14.5996 124.365 16.0645C124.365 19.043 122.168 21.3867 117.725 22.5098C114.062 23.3887 108.154 23.8281 100.488 23.7793L92.2852 23.6816C66.1621 23.4375 48.3398 8.69141 48.3398-12.5977ZM21.1426-12.2559C21.1426-28.6621 29.7852-41.6504 39.5996-41.9434C41.5039-41.9434 43.457-41.9434 45.3613-41.9434C40.4297-32.959 38.3301-23.8281 38.3301-12.6465C38.3301-0.78125 42.7734 9.57031 50.6348 17.3828C47.8516 17.3828 45.0195 17.3828 42.1875 17.3828C30.8594 17.041 21.1426 3.90625 21.1426-12.2559Z"/>
  </g>
  <g id="Regular-L" transform="matrix(1 0 0 1 1373.65 1556)">
   <path d="M11.2793-12.8906C11.2793 7.91016 24.8047 25.0488 41.0645 25.0488L61.5723 25.0488C69.6289 29.248 79.3945 31.7871 90.332 31.7871L98.9746 31.7871C106.738 31.7871 113.379 31.3477 117.725 30.2246C126.025 28.1738 131.104 22.5586 131.104 15.332C131.104 13.5742 130.811 12.0117 130.225 10.498C134.619 7.4707 137.158 2.83203 137.158-2.29492C137.158-4.98047 136.621-7.61719 135.498-9.61914C138.525-12.3535 140.332-16.6992 140.332-21.1914C140.332-24.2676 139.502-27.4414 138.086-29.5898C139.99-31.9824 141.113-35.4492 141.113-39.3066C141.113-48.1445 134.18-55.1758 125.391-55.1758L102.051-55.1758C99.8535-55.1758 98.4863-56.1523 98.4863-57.9102C98.4863-64.9902 109.082-80.7129 109.082-93.1641C109.082-101.318 103.418-107.227 95.6055-107.227C89.7949-107.227 85.9863-104.199 82.0801-96.7285C74.3652-81.8848 66.0645-70.3613 50.6348-51.123L38.6719-51.123C23.584-51.123 11.2793-34.1309 11.2793-12.8906ZM46.0449-13.0859C46.0449-26.6602 49.0723-35.4004 57.6172-46.8262C67.041-59.375 79.9805-74.3652 89.3555-93.0176C91.7969-97.8516 93.4082-99.0723 95.8984-99.0723C98.9258-99.0723 100.928-96.9238 100.928-93.1641C100.928-82.9102 90.2832-67.5781 90.2832-57.9102C90.2832-51.1719 95.8984-47.0215 103.125-47.0215L125.391-47.0215C129.736-47.0215 132.959-43.6523 132.959-39.3066C132.959-36.3281 132.031-34.2773 129.736-32.1289C128.467-30.957 128.32-29.541 129.395-28.3203C131.299-25.7324 132.178-23.7305 132.178-21.1914C132.178-18.1641 130.713-15.4785 127.979-13.5254C126.416-12.3535 125.732-10.7422 126.807-8.78906C128.223-6.15234 129.004-4.63867 129.004-2.29492C129.004 1.17188 126.855 3.85742 122.461 6.05469C120.996 6.83594 120.605 8.05664 121.338 9.52148C122.754 12.8418 122.949 13.6719 122.949 15.332C122.949 18.6035 120.557 21.1426 115.82 22.3145C112.109 23.291 106.201 23.6816 99.0234 23.6328L90.3809 23.5352C64.0137 23.291 46.0449 8.34961 46.0449-13.0859ZM19.4336-12.8906C19.4336-29.6387 28.5645-42.9688 38.6719-42.9688L45.2637-42.9688C40.0879-33.7891 37.8906-24.6094 37.8906-13.2324C37.8906-1.17188 42.5781 9.27734 50.7324 16.8945L41.0645 16.8945C29.5898 16.8945 19.4336 3.41797 19.4336-12.8906Z"/>
  </g>
  <g id="Light-L" transform="matrix(1 0 0 1 1079.09 1556)">
   <path d="M11.2793-14.1602C11.2793 6.20117 24.5117 22.6074 40.1367 22.6074L60.2539 22.6074C67.9688 26.6113 77.3438 29.0039 87.8418 29.0039L96.3379 29.0039C104.053 29.0039 110.449 28.5645 114.6 27.4902C122.266 25.5371 126.953 20.5078 126.953 13.8672C126.953 11.9629 126.562 10.2539 125.83 8.64258C130.322 5.9082 132.91 1.46484 132.91-3.51562C132.91-6.34766 132.275-9.08203 131.006-11.0352C134.131-13.3789 136.035-17.6758 136.035-22.168C136.035-25.3418 135.107-28.5645 133.545-30.5664C135.596-32.7637 136.816-36.1328 136.816-40.0391C136.816-48.0957 130.469-54.541 122.412-54.541L99.7559-54.541C96.6309-54.541 94.7266-56.0059 94.7266-58.3984C94.7266-65.7227 105.225-81.1523 105.225-93.1641C105.225-100.586 100.146-105.908 93.0176-105.908C87.7441-105.908 84.3262-103.125 80.7129-96.1914C72.9492-81.1523 65.7715-71.7285 49.707-51.1719L37.8418-51.1719C23.3398-51.1719 11.2793-34.9121 11.2793-14.1602ZM43.5059-14.1602C43.5059-27.6855 46.5332-36.4258 55.0781-47.8027C64.4043-60.2051 77.0996-74.9512 86.377-93.3105C88.8672-98.2422 90.5273-99.6094 93.2129-99.6094C96.6797-99.6094 98.9258-97.168 98.9258-93.1641C98.9258-82.9102 88.4277-67.7246 88.4277-58.3984C88.4277-52.1973 93.5547-48.2422 100.439-48.2422L122.412-48.2422C127.002-48.2422 130.518-44.6289 130.518-40.0391C130.518-37.0605 129.59-34.9121 127.588-33.0566C126.123-31.7871 125.928-30.2246 127.246-28.9062C128.906-26.9531 129.736-24.707 129.736-22.168C129.736-19.043 128.271-16.2109 125.684-14.502C124.072-13.3789 123.389-11.8164 124.561-9.81445C125.83-7.61719 126.611-5.9082 126.611-3.51562C126.611 0.0488281 124.414 2.88086 120.264 4.88281C118.799 5.61523 118.311 6.88477 119.189 8.54492C120.41 11.1816 120.654 12.207 120.654 13.8672C120.654 17.4316 118.066 20.166 113.086 21.3867C109.473 22.3145 103.613 22.7539 96.3379 22.7051L87.8418 22.6074C61.5723 22.3633 43.5059 7.32422 43.5059-14.1602ZM17.5781-14.1602C17.5781-31.4453 27.1973-44.873 37.8418-44.873L45.459-44.873C39.5996-35.3027 37.207-26.123 37.207-14.2578C37.207-1.75781 42.4316 8.88672 51.416 16.3086L40.1367 16.3086C28.2227 16.3086 17.5781 2.73438 17.5781-14.1602Z"/>
  </g>
  <g id="Thin-L" transform="matrix(1 0 0 1 785.206 1556)">
   <path d="M11.2793-15.7715C11.2793 3.95508 24.1699 19.3848 38.916 19.3848L58.4473 19.3848C65.8203 23.0957 74.6582 25.293 84.5215 25.293L92.8711 25.293C100.439 25.293 106.543 24.9023 110.498 23.8281C117.285 22.0215 121.484 17.8223 121.484 11.9629C121.484 9.86328 120.947 7.95898 120.02 6.20117C124.561 3.85742 127.295-0.292969 127.295-5.07812C127.295-8.1543 126.514-11.0352 125.049-12.8906C128.32-14.7949 130.371-18.9941 130.371-23.4375C130.371-26.7578 129.248-30.0293 127.539-31.7871C129.834-33.7402 131.152-37.0605 131.152-40.9668C131.152-48.0469 125.586-53.7598 118.457-53.7598L96.7773-53.7598C92.4316-53.7598 89.7949-55.8105 89.7949-58.9844C89.7949-66.6992 100.146-81.7383 100.146-93.1641C100.146-99.6094 95.752-104.15 89.5996-104.15C85.0098-104.15 82.1289-101.758 78.9062-95.459C71.0449-80.1758 65.332-73.5352 48.4375-51.2695L36.6699-51.2695C22.9492-51.2695 11.2793-35.9375 11.2793-15.7715ZM40.1367-15.5762C40.1367-29.0527 43.2129-37.793 51.6602-49.0723C60.8887-61.3281 73.2422-75.7324 82.373-93.7012C84.9121-98.7305 86.6699-100.293 89.6484-100.293C93.7012-100.293 96.2891-97.5098 96.2891-93.1641C96.2891-82.8613 85.9375-67.8711 85.9375-58.9844C85.9375-53.5156 90.4297-49.8535 96.9238-49.8535L118.457-49.8535C123.438-49.8535 127.295-45.9473 127.295-40.9668C127.295-37.9883 126.416-35.6934 124.707-34.2773C122.998-32.9102 122.754-31.1035 124.365-29.6875C125.684-28.5156 126.514-26.0742 126.514-23.4375C126.514-20.166 125-17.1875 122.656-15.7715C120.996-14.7461 120.264-13.1836 121.582-11.1328C122.705-9.52148 123.438-7.56836 123.438-5.07812C123.438-1.41602 121.24 1.66016 117.383 3.32031C115.869 4.05273 115.283 5.37109 116.357 7.22656C117.285 8.93555 117.578 10.2539 117.578 11.9629C117.578 15.8691 114.746 18.8965 109.521 20.166C105.957 21.0449 100.195 21.5332 92.8711 21.4355L84.5215 21.3379C58.3008 21.0938 40.1367 6.00586 40.1367-15.5762ZM15.1367-15.7715C15.1367-33.8379 25.3418-47.4121 36.6699-47.4121L45.7031-47.4121C38.9648-37.2559 36.2793-28.125 36.2793-15.625C36.2793-2.58789 42.2363 8.34961 52.2949 15.5273L38.916 15.5273C26.416 15.5273 15.1367 1.80664 15.1367-15.7715Z"/>
  </g>
  <g id="Ultralight-L" transform="matrix(1 0 0 1 489.936 1556)">
   <path d="M11.2793-16.6016C11.2793 2.7832 23.9746 17.7246 38.3301 17.7246L57.5684 17.7246C64.6973 21.2891 73.2422 23.3887 82.8613 23.3887L91.0645 23.3887C98.6328 23.3887 104.59 22.998 108.35 21.9727C114.746 20.2637 118.652 16.4062 118.652 10.9863C118.652 8.74023 118.066 6.78711 117.041 4.98047C121.631 2.83203 124.414-1.2207 124.414-5.9082C124.414-9.08203 123.584-12.0117 121.973-13.8672C125.342-15.5273 127.441-19.6777 127.441-24.0723C127.441-27.4902 126.27-30.8105 124.463-32.4219C126.855-34.2285 128.271-37.5 128.271-41.4551C128.271-48.0469 123.047-53.3203 116.455-53.3203L95.2148-53.3203C90.2344-53.3203 87.2559-55.7129 87.2559-59.3262C87.2559-67.1875 97.5098-82.0801 97.5098-93.1641C97.5098-99.1211 93.5059-103.271 87.8906-103.271C83.6426-103.271 81.0059-101.025 77.9785-95.0684C70.0684-79.6387 65.1367-74.4629 47.8027-51.2695L36.084-51.2695C22.7539-51.2695 11.2793-36.4746 11.2793-16.6016ZM38.4277-16.3086C38.4277-29.7363 41.5039-38.5254 49.9023-49.7559C59.082-61.9141 71.2891-76.1719 80.3223-93.8965C82.9102-99.0234 84.7168-100.684 87.8418-100.684C92.1875-100.684 94.9219-97.6562 94.9219-93.1641C94.9219-82.8613 84.668-67.9688 84.668-59.3262C84.668-54.1504 88.8184-50.7324 95.0684-50.7324L116.455-50.7324C121.631-50.7324 125.635-46.6309 125.635-41.4551C125.635-38.4766 124.756-36.1328 123.242-34.9121C121.387-33.4473 121.143-31.543 122.9-30.0781C124.023-29.2969 124.854-26.7578 124.854-24.0723C124.854-20.752 123.291-17.6758 121.094-16.4551C119.385-15.4297 118.652-13.916 120.068-11.7676C121.094-10.498 121.777-8.39844 121.777-5.9082C121.777-2.19727 119.629 1.02539 115.918 2.53906C114.404 3.27148 113.721 4.54102 114.893 6.54297C115.723 7.76367 116.016 9.27734 116.016 10.9863C116.016 15.0879 113.086 18.2129 107.715 19.5312C104.199 20.4102 98.3887 20.8984 91.0645 20.8008L82.8125 20.7031C56.6406 20.459 38.4277 5.32227 38.4277-16.3086ZM13.916-16.6016C13.916-35.0586 24.4141-48.6816 36.084-48.6816L45.8496-48.6816C38.623-38.2324 35.8398-29.1504 35.8398-16.3086C35.8398-2.97852 42.0898 8.10547 52.7344 15.1367L38.3301 15.1367C25.4883 15.1367 13.916 1.31836 13.916-16.6016Z"/>
  </g>
  <g id="Black-M" transform="matrix(1 0 0 1 2865.09 1126)">
   <path d="M8.64258-14.6484C8.64258 6.34766 21.4844 22.4609 41.3086 22.4609L57.0801 22.4609C64.2578 25.6348 72.168 27.2461 80.2246 27.2461L87.3535 27.2461C94.9219 27.2461 100.977 26.709 104.736 25.7324C113.721 23.5352 119.824 16.3574 119.824 8.10547C119.824 7.42188 119.775 6.83594 119.58 6.15234C122.949 2.88086 124.805-1.46484 124.805-6.25C124.805-8.05664 124.512-9.7168 124.023-11.2305C126.172-14.0625 127.393-17.7246 127.393-21.582C127.393-24.0723 126.855-26.3184 126.025-28.3203C127.295-30.957 127.979-34.1309 127.979-37.6465C127.979-47.6562 120.801-54.9805 110.84-54.9805L94.2383-54.9805C93.8965-54.9805 93.5059-55.2246 93.75-55.8594C95.3125-59.668 101.27-70.4102 101.27-80.3223C101.27-90.0879 94.1406-97.4609 84.6191-97.4609C77.7832-97.4609 72.7539-93.7988 68.6035-85.8398C61.9141-72.8027 53.0762-61.9141 45.459-52.002L39.4043-52.002C20.5078-52.002 8.64258-35.9375 8.64258-14.6484ZM48.4375-15.6738C48.4375-25.0977 50.4883-31.1523 57.0312-39.9902C64.5996-50.1465 75.1953-62.6465 82.8125-77.832C83.0078-78.2715 83.3008-78.5156 83.8379-78.5156C84.4727-78.5156 84.7656-77.9785 84.7656-77.3926C84.7656-73.291 76.7578-60.6934 76.7578-51.5625C76.7578-43.9941 82.2266-38.4766 91.4062-38.4766L109.57-38.4766C110.693-38.4766 111.475-37.7441 111.475-36.8164C111.475-36.2305 111.23-35.6934 110.742-35.0098C107.568-31.6895 107.031-25.8301 110.01-22.9492C110.498-22.4609 110.742-21.9727 110.742-21.5332C110.742-20.9961 110.352-20.459 109.717-20.0684C106.006-17.5293 104.98-12.4023 106.934-8.25195C107.227-7.71484 107.324-7.08008 107.324-6.64062C107.324-5.61523 106.738-4.73633 105.811-4.15039C102.051-2.00195 100.879 3.27148 102.393 7.03125C102.539 7.27539 102.588 7.56836 102.539 7.86133C102.539 8.64258 101.953 9.375 100.049 9.76562C97.3145 10.4004 92.627 10.791 84.3262 10.6934L80.3711 10.6445C61.2793 10.4492 48.4375 0.146484 48.4375-15.6738ZM24.4141-14.6484C24.4141-25.9277 28.7109-34.1309 35.0586-35.9375C35.2539-35.9863 35.5469-36.084 35.791-36.1328C33.1055-29.7363 31.8848-23.0469 31.8848-15.0391C31.8848-6.83594 34.2285 0.976562 38.8672 7.86133C38.8672 7.86133 38.5254 7.76367 38.3301 7.71484C30.1758 5.85938 24.4141-2.68555 24.4141-14.6484Z"/>
  </g>
  <g id="Heavy-M" transform="matrix(1 0 0 1 2570.26 1126)">
   <path d="M8.64258-15.2832C8.64258 4.63867 20.9961 20.2148 39.209 20.2148L55.0293 20.2148C62.0605 23.3887 69.9219 25.0977 78.1738 25.0977L85.2051 25.0977C92.4316 25.0977 98.291 24.6582 101.953 23.6816C110.449 21.6309 116.064 15.0391 116.064 7.32422C116.064 6.49414 116.016 5.76172 115.771 4.98047C119.141 1.9043 120.996-2.29492 120.996-6.88477C120.996-8.74023 120.703-10.498 120.117-12.0117C122.314-14.7461 123.535-18.3105 123.535-22.1191C123.535-24.5605 123.047-26.8555 122.119-28.8086C123.438-31.25 124.17-34.3262 124.17-37.6953C124.17-47.0703 117.334-54.0527 108.008-54.0527L90.9668-54.0527C90.4297-54.0527 89.9414-54.3457 90.1367-55.0781C91.3086-59.2773 97.8516-70.3613 97.8516-80.2734C97.8516-89.3555 91.2598-96.0938 82.4707-96.0938C76.123-96.0938 71.5332-92.7246 67.627-85.2539C61.084-72.5586 52.6855-61.8652 44.1406-50.9277L37.2559-50.9277C20.0195-50.9277 8.64258-35.4492 8.64258-15.2832ZM45.752-16.1133C45.752-25.7812 47.9004-31.9824 54.4434-40.8691C61.9629-50.9277 72.4609-63.2324 79.9805-78.3203C80.6152-79.4922 81.1035-79.8828 81.9336-79.8828C82.959-79.8828 83.4961-79.1016 83.4961-78.0273C83.4961-73.0469 75.3906-60.5957 75.3906-51.8066C75.3906-44.7266 80.6641-39.6973 89.0625-39.6973L107.031-39.6973C108.643-39.6973 109.814-38.5742 109.814-37.0605C109.814-36.084 109.473-35.3027 108.594-34.375C105.957-31.5918 105.566-26.9043 108.008-24.5117C108.74-23.584 109.082-22.8516 109.082-22.0703C109.082-21.0938 108.545-20.2637 107.568-19.5312C104.395-17.3828 103.516-13.1836 105.176-9.66797C105.713-8.69141 105.908-7.95898 105.908-7.17773C105.908-5.76172 105.078-4.6875 103.516-3.80859C100.391-2.00195 99.4141 2.24609 100.684 5.37109C101.123 6.25 101.172 6.5918 101.123 7.12891C101.123 8.30078 100.293 9.27734 97.998 9.81445C95.2148 10.4492 90.5762 10.8398 82.9102 10.7422L78.2715 10.6934C58.8379 10.498 45.752-0.0976562 45.752-16.1133ZM22.4609-15.2832C22.4609-26.8555 27.3438-35.5469 33.9844-36.9141C34.4727-36.9629 35.0586-37.0117 35.5957-37.0605C32.666-30.5664 31.3477-23.7793 31.3477-15.625C31.3477-7.22656 33.9355 0.634766 38.916 7.27539C38.3789 7.27539 37.5977 7.22656 36.9141 7.17773C28.6133 5.76172 22.4609-3.22266 22.4609-15.2832Z"/>
  </g>
  <g id="Bold-M" transform="matrix(1 0 0 1 2275.67 1126)">
   <path d="M8.69141-15.918C8.69141 2.7832 20.4102 17.6758 36.8164 17.6758L52.7832 17.6758C59.5703 20.9473 67.4316 22.7539 75.8301 22.7539L82.7637 22.7539C89.5996 22.7539 95.2637 22.3145 98.877 21.3867C106.787 19.4824 111.914 13.5742 111.914 6.44531C111.914 5.46875 111.768 4.58984 111.523 3.71094C114.844 0.830078 116.748-3.22266 116.748-7.61719C116.748-9.52148 116.406-11.3281 115.82-12.8906C118.018-15.4785 119.287-18.9941 119.287-22.7051C119.287-25.0977 118.75-27.4414 117.773-29.3457C119.141-31.6406 119.922-34.5703 119.922-37.793C119.922-46.4844 113.477-52.9785 104.834-52.9785L87.3047-52.9785C86.5234-52.9785 85.9863-53.3691 86.084-54.1992C86.8652-58.7891 94.043-70.3125 94.043-80.2246C94.043-88.4766 88.0859-94.6289 80.0781-94.6289C74.2676-94.6289 70.166-91.5527 66.5039-84.5215C60.1562-72.3145 52.2461-61.8164 42.627-49.7559L34.9121-49.7559C19.4824-49.7559 8.69141-34.9121 8.69141-15.918ZM42.7734-16.5527C42.7734-26.5625 44.9707-32.959 51.5625-41.7969C59.0332-51.8066 69.4336-63.916 76.9043-78.8574C77.9297-80.9082 78.6621-81.4453 79.834-81.4453C81.2012-81.4453 82.0801-80.4199 82.0801-78.7598C82.0801-72.7539 73.877-60.4492 73.877-52.0508C73.877-45.5078 78.9551-41.0645 86.4258-41.0645L104.199-41.0645C106.396-41.0645 107.959-39.502 107.959-37.4023C107.959-35.9375 107.471-34.9121 106.25-33.6426C104.199-31.543 103.906-28.125 105.762-26.2207C106.836-24.8535 107.275-23.8281 107.275-22.6562C107.275-21.2402 106.543-19.9707 105.127-18.9453C102.637-17.2363 101.855-14.0137 103.223-11.2305C104.004-9.81445 104.346-8.93555 104.346-7.8125C104.346-6.00586 103.223-4.58984 100.977-3.36914C98.5352-2.00195 97.8027 1.12305 98.8281 3.51562C99.5117 5.12695 99.6094 5.51758 99.5605 6.29883C99.5605 7.86133 98.3887 9.17969 95.6543 9.86328C92.8711 10.5469 88.2324 10.8887 81.2988 10.791L75.9277 10.7422C56.1523 10.5469 42.7734-0.390625 42.7734-16.5527ZM20.2637-15.918C20.2637-27.8809 25.8301-37.1582 32.7637-38.0371C33.6426-38.0859 34.5215-38.0859 35.4004-38.1348C32.2266-31.4941 30.8105-24.6094 30.8105-16.3086C30.8105-7.61719 33.6426 0.244141 38.916 6.68945C37.793 6.68945 36.5234 6.64062 35.3027 6.5918C26.9043 5.66406 20.2637-3.75977 20.2637-15.918Z"/>
  </g>
  <g id="Semibold-M" transform="matrix(1 0 0 1 1980.42 1126)">
   <path d="M8.69141-16.4062C8.69141 1.46484 20.0684 15.918 35.2051 15.918L51.2207 15.918C57.8613 19.2383 65.7227 21.1426 74.2188 21.1426L81.1035 21.1426C87.6465 21.1426 93.1641 20.7031 96.7285 19.8242C104.248 17.9688 109.033 12.5488 109.033 5.81055C109.033 4.73633 108.887 3.75977 108.545 2.7832C111.914 0.0488281 113.818-3.85742 113.818-8.1543C113.818-10.0586 113.477-11.9141 112.793-13.5254C115.039-16.0156 116.309-19.4824 116.309-23.0957C116.309-25.4883 115.771-27.832 114.795-29.6875C116.162-31.8848 116.943-34.7168 116.943-37.8418C116.943-46.0449 110.791-52.2949 102.686-52.2949L84.7656-52.2949C83.8867-52.2949 83.2031-52.7344 83.3008-53.6133C83.7891-58.4473 91.3574-70.3125 91.3574-80.1758C91.3574-87.8906 85.8887-93.5547 78.418-93.5547C72.998-93.5547 69.1895-90.7227 65.7227-84.082C59.5215-72.1191 51.9043-61.7676 41.6016-48.9258L33.3008-48.9258C19.0918-48.9258 8.69141-34.5703 8.69141-16.4062ZM40.7227-16.8945C40.7227-27.0996 42.9688-33.5938 49.6094-42.4805C56.9824-52.3926 67.334-64.4043 74.7559-79.1992C76.0742-81.8359 77.002-82.5195 78.3691-82.5195C80.0293-82.5195 81.1035-81.2988 81.1035-79.248C81.1035-72.5586 72.8516-60.3516 72.8516-52.2461C72.8516-46.0449 77.7344-41.9922 84.6191-41.9922L102.246-41.9922C104.785-41.9922 106.689-40.0879 106.689-37.5977C106.689-35.8398 106.104-34.6191 104.59-33.1543C102.979-31.4941 102.783-28.9551 104.199-27.4414C105.469-25.6836 106.006-24.5117 106.006-23.0957C106.006-21.3379 105.176-19.8242 103.418-18.5547C101.416-17.1387 100.732-14.5996 101.904-12.3047C102.783-10.5469 103.271-9.61914 103.271-8.25195C103.271-6.15234 101.904-4.54102 99.2188-3.07617C97.2656-2.00195 96.6797 0.341797 97.5098 2.24609C98.3887 4.3457 98.5352 4.78516 98.4863 5.76172C98.4863 7.61719 97.1191 9.13086 94.043 9.86328C91.2109 10.5957 86.6211 10.9375 80.1758 10.8398L74.3164 10.791C54.248 10.5957 40.7227-0.585938 40.7227-16.8945ZM18.75-16.4062C18.75-28.6133 24.7559-38.2324 31.9336-38.8184C33.0078-38.8184 34.1309-38.8672 35.2539-38.8672C31.8848-32.1289 30.4199-25.1465 30.4199-16.7969C30.4199-7.95898 33.4473-0.0488281 38.916 6.25C37.4023 6.25 35.791 6.25 34.2285 6.20117C25.7324 5.61523 18.75-4.15039 18.75-16.4062Z"/>
  </g>
  <g id="Medium-M" transform="matrix(1 0 0 1 1684.84 1126)">
   <path d="M8.74023-16.748C8.74023 0.488281 19.7754 14.5996 33.9355 14.5996L50 14.5996C56.5918 17.9688 64.4043 19.9219 72.998 19.9219L79.834 19.9219C86.1816 19.9219 91.6016 19.5312 95.1172 18.6523C102.295 16.8457 106.836 11.7676 106.836 5.37109C106.836 4.19922 106.689 3.17383 106.348 2.09961C109.717-0.488281 111.621-4.3457 111.621-8.54492C111.621-10.498 111.23-12.4023 110.547-14.0137C112.793-16.4062 114.111-19.8242 114.111-23.3887C114.111-25.7812 113.525-28.125 112.549-29.9805C113.916-32.0801 114.697-34.8633 114.697-37.8906C114.697-45.7031 108.74-51.709 101.025-51.709L82.8613-51.709C81.8359-51.709 81.1523-52.1973 81.2012-53.125C81.4453-58.2031 89.3555-70.2637 89.3555-80.1758C89.3555-87.4512 84.2285-92.7734 77.1484-92.7734C72.0215-92.7734 68.5059-90.0879 65.1367-83.6914C59.082-71.9727 51.709-61.7188 40.8203-48.3398L32.0801-48.3398C18.7988-48.3398 8.74023-34.2773 8.74023-16.748ZM39.1602-17.1387C39.1602-27.4902 41.4551-34.1309 48.0957-42.9688C55.4688-52.8809 65.7227-64.7461 73.0957-79.4922C74.6582-82.5684 75.7324-83.3496 77.2949-83.3496C79.1504-83.3496 80.3711-81.9824 80.3711-79.6387C80.3711-72.4121 72.0703-60.3027 72.0703-52.3926C72.0703-46.4844 76.8066-42.7246 83.252-42.7246L100.781-42.7246C103.613-42.7246 105.713-40.5762 105.713-37.7441C105.713-35.7422 105.078-34.4238 103.369-32.7637C102.1-31.4941 101.904-29.6387 103.027-28.3203C104.443-26.3672 105.029-25.0488 105.029-23.3887C105.029-21.3867 104.102-19.6777 102.148-18.2617C100.488-17.041 99.9023-15.0879 100.879-13.1348C101.904-11.1328 102.441-10.1562 102.441-8.59375C102.441-6.25 100.928-4.49219 97.9004-2.88086C96.2891-2.00195 95.8496-0.244141 96.5332 1.26953C97.5586 3.75977 97.7051 4.24805 97.6562 5.32227C97.6562 7.42188 96.1426 9.08203 92.8711 9.91211C89.9902 10.5957 85.4004 10.9375 79.3457 10.8887L73.0469 10.8398C52.832 10.6445 39.1602-0.732422 39.1602-17.1387ZM17.627-16.748C17.627-29.1504 23.9746-39.0625 31.2988-39.4043C32.5684-39.4043 33.8379-39.4043 35.1074-39.4043C31.6406-32.666 30.127-25.5859 30.127-17.1387C30.127-8.1543 33.252-0.244141 38.9648 5.9082C37.1582 5.9082 35.2539 5.9082 33.3984 5.9082C24.8535 5.56641 17.627-4.49219 17.627-16.748Z"/>
  </g>
  <g id="Regular-M" transform="matrix(1 0 0 1 1389.57 1126)">
   <path d="M8.74023-17.2363C8.74023-0.830078 19.3848 12.8906 32.3242 12.8906L48.4863 12.8906C54.8828 16.2598 62.6953 18.3105 71.4355 18.3105L78.1738 18.3105C84.2773 18.3105 89.5508 17.9199 93.0176 17.0898C99.8047 15.4297 104.004 10.7422 104.004 4.73633C104.004 3.51562 103.809 2.34375 103.418 1.2207C106.787-1.26953 108.691-4.98047 108.691-9.0332C108.691-11.0352 108.35-12.9883 107.568-14.5996C109.863-16.8945 111.182-20.2637 111.182-23.8281C111.182-26.123 110.596-28.5645 109.57-30.3223C110.986-32.3242 111.816-35.0098 111.816-37.9883C111.816-45.2637 106.104-51.0254 98.877-51.0254L80.3711-51.0254C79.1992-51.0254 78.418-51.5625 78.418-52.5391C78.418-57.8613 86.7676-70.2148 86.7676-80.127C86.7676-86.8652 82.0312-91.748 75.5371-91.748C70.752-91.748 67.5781-89.2578 64.4043-83.2031C58.4473-71.8262 51.3672-61.6699 39.7949-47.5098L30.4688-47.5098C18.457-47.5098 8.74023-33.8867 8.74023-17.2363ZM37.1094-17.4805C37.1094-28.0273 39.502-34.7656 46.1426-43.6523C53.4668-53.4668 63.623-65.2344 70.9961-79.834C72.8027-83.5449 74.0723-84.375 75.8301-84.375C77.9297-84.375 79.3945-82.8613 79.3945-80.127C79.3945-72.2168 71.0449-60.2051 71.0449-52.5391C71.0449-47.0215 75.6348-43.6523 81.4453-43.6523L98.877-43.6523C102.051-43.6523 104.443-41.2109 104.443-37.9883C104.443-35.6445 103.711-34.1309 101.758-32.2754C100.879-31.4453 100.781-30.4688 101.514-29.541C103.125-27.1973 103.809-25.7324 103.809-23.8281C103.809-21.4844 102.734-19.5312 100.488-17.8223C99.2676-16.9434 98.7793-15.6738 99.5117-14.1602C100.732-11.8652 101.318-10.791 101.318-9.0332C101.318-6.39648 99.6582-4.39453 96.1426-2.58789C95.0195-1.95312 94.7754-1.02539 95.2148 0.0488281C96.4355 3.02734 96.6309 3.51562 96.6309 4.73633C96.6309 7.12891 94.873 9.0332 91.2598 9.91211C88.3789 10.6445 83.7891 10.9863 78.2227 10.9375L71.4844 10.8398C51.0254 10.6445 37.1094-0.878906 37.1094-17.4805ZM16.1133-17.2363C16.1133-29.834 22.9492-40.1367 30.4688-40.1367L35.0098-40.1367C31.3477-33.3008 29.7363-26.1719 29.7363-17.627C29.7363-8.44727 33.0566-0.537109 38.9648 5.51758L32.3242 5.51758C23.6816 5.51758 16.1133-4.88281 16.1133-17.2363Z"/>
  </g>
  <g id="Light-M" transform="matrix(1 0 0 1 1094.78 1126)">
   <path d="M8.74023-18.3105C8.74023-2.34375 19.1406 10.6934 31.4941 10.6934L47.2656 10.6934C53.418 13.8672 60.8887 15.7715 69.1895 15.7715L75.8301 15.7715C81.8359 15.7715 86.9141 15.4297 90.2344 14.5996C96.4355 13.0371 100.244 8.88672 100.244 3.4668C100.244 2.05078 100 0.78125 99.5117-0.390625C102.93-2.63672 104.883-6.15234 104.883-10.1074C104.883-12.2559 104.443-14.3066 103.564-15.8691C105.908-17.8223 107.324-21.1914 107.324-24.6582C107.324-27.0996 106.641-29.541 105.518-31.2012C107.08-32.959 107.959-35.6445 107.959-38.623C107.959-45.2148 102.783-50.4883 96.1914-50.4883L78.3203-50.4883C76.3184-50.4883 75.0977-51.416 75.0977-52.9785C75.0977-58.5449 83.3008-70.6543 83.3008-80.127C83.3008-86.2305 79.0527-90.5762 73.2422-90.5762C68.8965-90.5762 66.0645-88.3301 63.1836-82.7148C57.1777-71.1426 51.123-62.9395 38.916-47.5586L29.6875-47.5586C18.2129-47.5586 8.74023-34.6191 8.74023-18.3105ZM34.8633-18.457C34.8633-28.9551 37.207-35.6934 43.7988-44.5312C51.0742-54.1992 61.0352-65.7715 68.2617-80.127C70.166-83.8867 71.4355-84.8633 73.4375-84.8633C75.9277-84.8633 77.5879-83.1055 77.5879-80.127C77.5879-72.168 69.3848-60.3516 69.3848-52.9785C69.3848-47.9004 73.5352-44.7754 79.0527-44.7754L96.1914-44.7754C99.6582-44.7754 102.246-42.0898 102.246-38.623C102.246-36.3281 101.514-34.7168 99.8047-33.1055C98.7793-32.1777 98.6328-31.0547 99.5605-30.0293C100.977-28.2715 101.611-26.6113 101.611-24.6582C101.611-22.2656 100.488-20.166 98.4375-18.7012C97.168-17.8223 96.6797-16.6016 97.5098-15.0879C98.584-13.1836 99.1699-11.9629 99.1699-10.1074C99.1699-7.42188 97.5098-5.27344 94.1895-3.61328C93.0176-3.02734 92.6758-2.05078 93.3105-0.878906C94.3359 1.46484 94.5312 2.19727 94.5312 3.4668C94.5312 6.10352 92.627 8.1543 88.8672 9.08203C86.0352 9.81445 81.4453 10.1562 75.8789 10.0586L69.2383 10.0098C48.7793 9.81445 34.8633-1.80664 34.8633-18.457ZM14.4531-18.3105C14.4531-31.4941 21.6797-41.8457 29.6875-41.8457L35.1562-41.8457C30.9082-34.6191 29.1504-27.4902 29.1504-18.5059C29.1504-9.0332 32.9102-0.878906 39.5508 4.98047L31.4941 4.98047C22.4609 4.98047 14.4531-5.46875 14.4531-18.3105Z"/>
  </g>
  <g id="Thin-M" transform="matrix(1 0 0 1 800.612 1126)">
   <path d="M8.74023-19.7754C8.74023-4.39453 18.7988 7.8125 30.4199 7.8125L45.7031 7.8125C51.4648 10.7422 58.4473 12.5 66.2109 12.5L72.7051 12.5C78.6133 12.5 83.4473 12.1582 86.5234 11.3281C91.9922 9.91211 95.3125 6.44531 95.3125 1.75781C95.3125 0.146484 94.9219-1.26953 94.2871-2.58789C97.8027-4.49219 99.8535-7.76367 99.8535-11.5234C99.8535-13.8672 99.2676-16.0645 98.1934-17.5293C100.684-19.0918 102.246-22.3633 102.246-25.8301C102.246-28.3691 101.416-30.9082 100.146-32.3242C101.855-33.8379 102.881-36.4258 102.881-39.4531C102.881-45.2148 98.3887-49.7559 92.6758-49.7559L75.6348-49.7559C72.5586-49.7559 70.6543-51.2207 70.6543-53.5156C70.6543-59.4238 78.7109-71.1426 78.7109-80.127C78.7109-85.3516 75.1465-89.0137 70.2148-89.0137C66.4551-89.0137 64.1113-87.0605 61.5234-82.0801C55.4688-70.2637 50.7324-64.5508 37.793-47.6562L28.6621-47.6562C17.8711-47.6562 8.74023-35.5469 8.74023-19.7754ZM31.8359-19.7266C31.8359-30.127 34.2285-36.9141 40.7715-45.7031C47.9492-55.2246 57.6172-66.4551 64.6973-80.4688C66.6504-84.3262 68.0176-85.498 70.2637-85.498C73.2422-85.498 75.1953-83.3984 75.1953-80.127C75.1953-72.168 67.1387-60.498 67.1387-53.5156C67.1387-49.1211 70.752-46.2402 75.8789-46.2402L92.6758-46.2402C96.4355-46.2402 99.3652-43.2617 99.3652-39.4531C99.3652-37.1582 98.6328-35.4004 97.2656-34.2285C95.9961-33.1543 95.8496-31.8359 97.0215-30.7617C98.0957-29.6875 98.7305-27.832 98.7305-25.8301C98.7305-23.291 97.5586-21.0449 95.7031-19.873C94.4336-19.043 93.8965-17.8223 94.873-16.2598C95.752-14.8926 96.3379-13.4277 96.3379-11.5234C96.3379-8.69141 94.6777-6.39648 91.6016-5.0293C90.4297-4.44336 89.9902-3.4668 90.7715-2.05078C91.5527-0.537109 91.7969 0.439453 91.7969 1.75781C91.7969 4.73633 89.6484 6.98242 85.6445 7.95898C82.8613 8.64258 78.3691 9.0332 72.7051 8.93555L66.2109 8.88672C45.8984 8.69141 31.8359-2.97852 31.8359-19.7266ZM12.2559-19.7754C12.2559-33.6426 20.0684-44.0918 28.6621-44.0918L35.3516-44.0918C30.3223-36.377 28.3203-29.2969 28.3203-19.7266C28.3203-9.76562 32.7637-1.31836 40.332 4.24805L30.4199 4.24805C20.8496 4.24805 12.2559-6.34766 12.2559-19.7754Z"/>
  </g>
  <g id="Ultralight-M" transform="matrix(1 0 0 1 505.195 1126)">
   <path d="M8.74023-20.5566C8.74023-5.41992 18.6523 6.29883 29.8828 6.29883L44.873 6.29883C50.4883 9.13086 57.1777 10.791 64.6973 10.791L71.1426 10.791C76.9531 10.791 81.6406 10.4492 84.6191 9.66797C89.6973 8.30078 92.7734 5.22461 92.7734 0.878906C92.7734-0.830078 92.334-2.29492 91.6016-3.71094C95.166-5.41992 97.2656-8.59375 97.2656-12.2559C97.2656-14.6973 96.6309-16.9434 95.459-18.3594C97.998-19.7266 99.6582-22.9492 99.6582-26.416C99.6582-29.0039 98.7793-31.5918 97.4121-32.8613C99.2188-34.2773 100.293-36.8652 100.293-39.8926C100.293-45.166 96.1426-49.3652 90.8691-49.3652L74.2676-49.3652C70.6055-49.3652 68.4082-51.123 68.4082-53.8086C68.4082-59.8633 76.3672-71.4355 76.3672-80.127C76.3672-84.9121 73.1445-88.2324 68.6523-88.2324C65.2344-88.2324 63.1348-86.4258 60.6934-81.7383C54.5898-69.8242 50.5371-65.3809 37.2559-47.6562L28.125-47.6562C17.7246-47.6562 8.74023-36.0352 8.74023-20.5566ZM30.3223-20.3613C30.3223-30.7617 32.666-37.5488 39.209-46.2891C46.3379-55.7617 55.8594-66.8457 62.8906-80.6641C64.8926-84.5703 66.2598-85.8398 68.6035-85.8398C71.875-85.8398 73.9746-83.5938 73.9746-80.127C73.9746-72.168 65.9668-60.5469 65.9668-53.8086C65.9668-49.707 69.3359-46.9727 74.2188-46.9727L90.8691-46.9727C94.8242-46.9727 97.8516-43.8477 97.8516-39.8926C97.8516-37.5977 97.168-35.791 95.9473-34.8145C94.5801-33.6914 94.3848-32.2266 95.7031-31.1035C96.6309-30.3711 97.2656-28.4668 97.2656-26.416C97.2656-23.8281 96.0449-21.4844 94.3359-20.459C93.0176-19.6777 92.4316-18.5059 93.5059-16.8457C94.3359-15.7715 94.873-14.209 94.873-12.2559C94.873-9.375 93.2129-6.93359 90.2832-5.71289C89.1113-5.17578 88.5742-4.15039 89.4531-2.63672C90.1367-1.5625 90.3809-0.439453 90.3809 0.878906C90.3809 4.00391 88.1348 6.39648 84.0332 7.37305C81.2988 8.05664 76.8066 8.44727 71.1426 8.39844L64.6973 8.30078C44.3848 8.1543 30.3223-3.56445 30.3223-20.3613ZM11.1328-20.5566C11.1328-34.7168 19.1895-45.2637 28.125-45.2637L35.498-45.2637C30.0293-37.2559 27.8809-30.2246 27.8809-20.3613C27.8809-10.1074 32.666-1.5625 40.7227 3.90625L29.8828 3.90625C20.0195 3.90625 11.1328-6.73828 11.1328-20.5566Z"/>
  </g>
  <g id="Black-S" transform="matrix(1 0 0 1 2879.98 696)">
   <path d="M6.78711-19.1406C6.78711-2.7832 16.7969 9.81445 32.2266 9.81445L44.5801 9.81445C50.1953 12.3047 56.3965 13.5742 62.7441 13.5742L68.3105 13.5742C74.2188 13.5742 78.9551 13.1836 81.8848 12.4023C88.916 10.6934 93.6523 5.12695 93.6523-1.31836C93.6523-1.85547 93.6035-2.34375 93.457-2.88086C96.0938-5.41992 97.5586-8.83789 97.5586-12.5488C97.5586-13.9648 97.3145-15.2832 96.9238-16.4551C98.6328-18.7012 99.5605-21.5332 99.5605-24.5605C99.5605-26.5137 99.1699-28.2715 98.4863-29.834C99.5117-31.8848 100.049-34.375 100.049-37.1094C100.049-44.9219 94.4336-50.6348 86.6699-50.6348L73.6328-50.6348C73.3398-50.6348 73.0469-50.8301 73.2422-51.3184C74.4141-54.3457 79.1504-62.793 79.1504-70.5566C79.1504-78.1738 73.584-83.8867 66.1621-83.8867C60.8398-83.8867 56.9336-81.0547 53.7109-74.8535C48.4863-64.6484 41.5527-56.1035 35.5469-48.291L30.7129-48.291C16.0645-48.291 6.78711-35.7422 6.78711-19.1406ZM37.793-19.9219C37.793-27.3438 39.4043-32.0801 44.5312-39.0137C50.4395-46.9727 58.7402-56.7383 64.6973-68.6523C64.8926-69.043 65.1367-69.2383 65.5762-69.2383C66.1133-69.2383 66.3574-68.7988 66.3574-68.3105C66.3574-65.0391 60.0586-55.1758 60.0586-48.0469C60.0586-42.1387 64.3555-37.8418 71.4844-37.8418L85.6934-37.8418C86.6211-37.8418 87.2559-37.2559 87.2559-36.4746C87.2559-35.9863 87.0605-35.5469 86.6211-35.0098C84.1797-32.4219 83.7891-27.9297 86.084-25.7324C86.4746-25.293 86.6699-24.9023 86.6699-24.5117C86.6699-24.0723 86.377-23.6328 85.8398-23.291C82.959-21.3379 82.1777-17.3828 83.6914-14.209C83.9355-13.7207 84.0332-13.2324 84.0332-12.8418C84.0332-12.0117 83.5449-11.3281 82.7637-10.8398C79.8828-9.17969 78.9551-5.12695 80.127-2.24609C80.2734-2.00195 80.3223-1.75781 80.2734-1.51367C80.2734-0.878906 79.7852-0.292969 78.2715 0.0488281C76.123 0.537109 72.4609 0.830078 66.0156 0.78125L62.8418 0.732422C47.8516 0.585938 37.793-7.51953 37.793-19.9219ZM18.9941-19.1406C18.9941-27.9785 22.4121-34.4727 27.3926-35.8398C27.5879-35.8887 27.832-35.9375 28.0273-35.9863C25.9277-30.957 24.9512-25.7324 24.9512-19.4336C24.9512-12.9883 26.8066-6.88477 30.4688-1.51367C30.4199-1.51367 30.127-1.5625 29.9316-1.61133C23.5352-3.02734 18.9941-9.76562 18.9941-19.1406Z"/>
  </g>
  <g id="Heavy-S" transform="matrix(1 0 0 1 2584.52 696)">
   <path d="M6.78711-19.4824C6.78711-3.90625 16.4551 8.34961 30.6641 8.34961L43.1641 8.34961C48.6816 10.8887 54.8828 12.2559 61.377 12.2559L66.8945 12.2559C72.5586 12.2559 77.1973 11.8652 80.0781 11.1328C86.7676 9.47266 91.2109 4.29688 91.2109-1.75781C91.2109-2.39258 91.1133-2.97852 90.9668-3.56445C93.6035-6.00586 95.0684-9.32617 95.0684-12.9395C95.0684-14.3555 94.8242-15.7227 94.3848-16.9434C96.0938-19.0918 97.0703-21.9238 97.0703-24.8535C97.0703-26.7578 96.6797-28.5645 95.9473-30.127C96.9727-32.0801 97.5586-34.4727 97.5586-37.1094C97.5586-44.4824 92.1387-50 84.8145-50L71.3379-50C70.9961-50 70.7031-50.1953 70.8496-50.6836C71.7285-53.9551 76.9043-62.6953 76.9043-70.5078C76.9043-77.6855 71.7285-83.0078 64.7949-83.0078C59.7656-83.0078 56.1523-80.3223 53.0762-74.4141C47.998-64.5508 41.2598-55.9082 34.6191-47.4609L29.1992-47.4609C15.7227-47.4609 6.78711-35.3027 6.78711-19.4824ZM35.9863-20.1172C35.9863-27.7832 37.6465-32.6172 42.8223-39.5996C48.6816-47.4609 56.9336-57.1289 62.8418-68.9941C63.3301-69.9707 63.7695-70.2637 64.4043-70.2637C65.1367-70.2637 65.5762-69.6777 65.5762-68.7988C65.5762-64.8438 59.2285-55.0781 59.2285-48.1934C59.2285-42.5781 63.3789-38.6719 69.9219-38.6719L84.0332-38.6719C85.3027-38.6719 86.2305-37.793 86.2305-36.6211C86.2305-35.791 85.9375-35.2051 85.2051-34.4238C83.2031-32.2754 82.9102-28.7109 84.7656-26.8555C85.4004-26.0254 85.6445-25.4883 85.6445-24.8535C85.6445-24.0723 85.2539-23.3887 84.375-22.8027C81.9824-21.1426 81.2988-17.8711 82.5684-15.1855C83.0078-14.3555 83.2031-13.7695 83.2031-13.1348C83.2031-12.0605 82.5195-11.1816 81.25-10.4492C78.8086-9.0332 78.0762-5.81055 79.0527-3.41797C79.3945-2.58789 79.4434-2.34375 79.4434-1.95312C79.4434-1.02539 78.7598-0.244141 76.9531 0.146484C74.7559 0.683594 71.1426 0.976562 65.1855 0.927734L61.4746 0.878906C46.2402 0.732422 35.9863-7.61719 35.9863-20.1172ZM17.6758-19.4824C17.6758-28.5156 21.4844-35.3516 26.6602-36.4258C27.0508-36.4258 27.4902-36.4746 27.8809-36.5234C25.6348-31.4453 24.6094-26.123 24.6094-19.8242C24.6094-13.2324 26.6113-7.12891 30.4199-1.85547C30.0293-1.85547 29.4434-1.9043 28.9551-1.95312C22.5098-3.02734 17.6758-10.1074 17.6758-19.4824Z"/>
  </g>
  <g id="Bold-S" transform="matrix(1 0 0 1 2289.2 696)">
   <path d="M6.83594-19.873C6.83594-5.12695 16.0645 6.68945 28.9551 6.68945L41.5527 6.68945C46.9727 9.27734 53.2227 10.7422 59.8633 10.7422L65.332 10.7422C70.7031 10.7422 75.1953 10.4004 78.0762 9.66797C84.375 8.1543 88.4766 3.41797 88.4766-2.29492C88.4766-3.02734 88.3789-3.66211 88.1836-4.39453C90.8203-6.68945 92.2852-9.86328 92.2852-13.3789C92.2852-14.7949 92.041-16.2109 91.6016-17.4805C93.3105-19.5801 94.2383-22.3145 94.2383-25.1953C94.2383-27.0996 93.8477-28.9062 93.1641-30.4199C94.1895-32.2754 94.7266-34.5703 94.7266-37.1094C94.7266-43.9941 89.5996-49.2676 82.7148-49.2676L68.7988-49.2676C68.3594-49.2676 68.0664-49.4629 68.1641-49.9512C68.75-53.5156 74.4141-62.6465 74.4141-70.5078C74.4141-77.0996 69.6289-81.9824 63.2324-81.9824C58.5938-81.9824 55.2734-79.541 52.3926-73.9746C47.4121-64.4043 40.9668-55.7129 33.5449-46.582L27.4902-46.582C15.332-46.582 6.83594-34.8145 6.83594-19.873ZM33.9844-20.4102C33.9844-28.2227 35.6934-33.252 40.8691-40.1855C46.7285-48.0469 54.9316-57.6172 60.791-69.3359C61.6211-70.9961 62.207-71.3867 63.0859-71.3867C64.0625-71.3867 64.6973-70.6055 64.6973-69.3848C64.6973-64.5996 58.252-54.9805 58.252-48.3398C58.252-43.0664 62.3047-39.5508 68.2129-39.5508L82.2266-39.5508C83.8867-39.5508 85.0586-38.3789 85.0586-36.7676C85.0586-35.6445 84.668-34.8145 83.6426-33.7402C82.1289-32.1777 81.8848-29.541 83.252-28.125C84.1797-26.8555 84.5215-26.123 84.5215-25.1953C84.5215-24.0723 83.9355-23.1445 82.7637-22.2168C80.8594-20.8984 80.2734-18.4082 81.2988-16.2598C81.9336-15.0391 82.2266-14.4043 82.2266-13.5254C82.2266-12.1094 81.3477-10.9863 79.4922-10.0098C77.6367-8.93555 77.0996-6.54297 77.832-4.6875C78.418-3.27148 78.5156-3.02734 78.4668-2.39258C78.4668-1.2207 77.5879-0.195312 75.4883 0.292969C73.2422 0.830078 69.6289 1.12305 64.209 1.07422L59.9609 1.02539C44.4336 0.878906 33.9844-7.71484 33.9844-20.4102ZM16.2109-19.873C16.2109-29.1016 20.5078-36.377 25.8301-37.0605C26.416-37.0605 27.0508-37.1094 27.6855-37.1094C25.3418-32.0312 24.2676-26.6113 24.2676-20.2148C24.2676-13.4766 26.3672-7.37305 30.3223-2.29492C29.5898-2.29492 28.6621-2.29492 27.832-2.34375C21.3379-3.02734 16.2109-10.4492 16.2109-19.873Z"/>
  </g>
  <g id="Semibold-S" transform="matrix(1 0 0 1 1993.44 696)">
   <path d="M6.83594-20.1172C6.83594-6.00586 15.7715 5.51758 27.7832 5.51758L40.4785 5.51758C45.8008 8.20312 52.0508 9.7168 58.8379 9.7168L64.2578 9.7168C69.4336 9.7168 73.8281 9.375 76.6602 8.69141C82.7148 7.22656 86.5723 2.7832 86.5723-2.63672C86.5723-3.41797 86.4746-4.15039 86.2793-4.93164C88.8672-7.12891 90.3809-10.2539 90.3809-13.6719C90.3809-15.1367 90.0879-16.5527 89.6484-17.8223C91.3574-19.873 92.334-22.6074 92.334-25.4395C92.334-27.2949 91.9434-29.1016 91.2109-30.6152C92.2363-32.373 92.8223-34.6191 92.8223-37.0605C92.8223-43.7012 87.8418-48.7305 81.25-48.7305L67.041-48.7305C66.5527-48.7305 66.2109-48.9746 66.3086-49.4629C66.6504-53.1738 72.6562-62.5488 72.6562-70.459C72.6562-76.709 68.2129-81.2988 62.1582-81.2988C57.7637-81.2988 54.6875-79.0039 51.9043-73.6328C47.0703-64.3555 40.7715-55.6152 32.8125-45.9473L26.3184-45.9473C15.0391-45.9473 6.83594-34.4727 6.83594-20.1172ZM32.5684-20.5566C32.5684-28.5645 34.375-33.6914 39.5508-40.625C45.4102-48.4375 53.5156-57.9102 59.375-69.6289C60.4004-71.6797 61.1328-72.168 62.1582-72.168C63.3301-72.168 64.1113-71.2891 64.1113-69.7266C64.1113-64.4531 57.6172-54.8828 57.6172-48.4375C57.6172-43.4082 61.5723-40.1855 67.041-40.1855L80.957-40.1855C82.8613-40.1855 84.2773-38.7695 84.2773-36.8652C84.2773-35.498 83.7891-34.5703 82.5684-33.3008C81.3477-32.0801 81.2012-30.1758 82.2266-29.0039C83.3008-27.4414 83.7402-26.5625 83.7402-25.4395C83.7402-24.0723 83.0566-22.9492 81.6406-21.875C80.127-20.752 79.5898-18.7988 80.4688-16.9922C81.2012-15.4785 81.5918-14.7949 81.5918-13.7695C81.5918-12.1094 80.5176-10.8887 78.3203-9.66797C76.8066-8.83789 76.416-7.03125 77.002-5.61523C77.7344-3.71094 77.832-3.4668 77.832-2.73438C77.832-1.31836 76.8066-0.195312 74.4629 0.390625C72.2168 0.927734 68.6035 1.2207 63.5742 1.17188L58.8867 1.12305C43.2129 0.976562 32.5684-7.76367 32.5684-20.5566ZM15.1855-20.1172C15.1855-29.4922 19.7754-37.0605 25.2441-37.5C26.0254-37.5 26.8066-37.5 27.5391-37.5488C25.0977-32.373 24.0234-26.9043 24.0234-20.5078C24.0234-13.6719 26.2207-7.56836 30.3223-2.58789C29.248-2.58789 28.125-2.58789 27.0508-2.58789C20.5566-3.02734 15.1855-10.6934 15.1855-20.1172Z"/>
  </g>
  <g id="Medium-S" transform="matrix(1 0 0 1 1697.46 696)">
   <path d="M6.83594-20.3125C6.83594-6.64062 15.5762 4.63867 26.8555 4.63867L39.5996 4.63867C44.873 7.37305 51.1719 8.93555 58.0566 8.93555L63.4277 8.93555C68.457 8.93555 72.7539 8.64258 75.5859 7.91016C81.4453 6.49414 85.1074 2.29492 85.1074-2.92969C85.1074-3.75977 85.0098-4.54102 84.8145-5.32227C87.4512-7.4707 88.916-10.5469 88.916-13.8672C88.916-15.3809 88.6719-16.7969 88.1836-18.1152C89.8926-20.1172 90.8691-22.8027 90.8691-25.6348C90.8691-27.4414 90.4785-29.2969 89.7461-30.7617C90.7715-32.4707 91.3574-34.7168 91.3574-37.0605C91.3574-43.457 86.4746-48.3398 80.1758-48.3398L65.6738-48.3398C65.1855-48.3398 64.8438-48.584 64.8926-49.0723C65.0879-52.9297 71.3379-62.5 71.3379-70.459C71.3379-76.416 67.1387-80.7617 61.3281-80.7617C57.1289-80.7617 54.1992-78.5645 51.5137-73.3887C46.7773-64.3066 40.5762-55.5176 32.2754-45.459L25.3906-45.459C14.8438-45.459 6.83594-34.1797 6.83594-20.3125ZM31.543-20.7031C31.543-28.8086 33.3496-33.9844 38.5742-40.9668C44.3848-48.7305 52.4902-58.1543 58.3008-69.8242C59.5215-72.2168 60.3027-72.7539 61.4746-72.7539C62.793-72.7539 63.623-71.7773 63.623-70.0195C63.623-64.3555 57.1289-54.834 57.1289-48.4863C57.1289-43.7012 60.9863-40.6738 66.1133-40.6738L79.9805-40.6738C82.1289-40.6738 83.6426-39.1113 83.6426-36.9629C83.6426-35.4004 83.1543-34.375 81.7383-32.959C80.8105-31.9824 80.6641-30.6152 81.4941-29.6387C82.666-27.8809 83.1543-26.9043 83.1543-25.6348C83.1543-24.0723 82.4219-22.8027 80.8105-21.582C79.541-20.6055 79.0527-19.043 79.7852-17.5781C80.6641-15.8691 81.0547-15.1367 81.0547-13.916C81.0547-12.1582 79.9316-10.791 77.4414-9.47266C76.1719-8.74023 75.8789-7.42188 76.3672-6.29883C77.2461-4.10156 77.3438-3.80859 77.3438-2.97852C77.3438-1.41602 76.1719-0.146484 73.6816 0.439453C71.4355 1.02539 67.8223 1.26953 63.0859 1.2207L58.1055 1.17188C42.2363 1.02539 31.543-7.8125 31.543-20.7031ZM14.4043-20.3125C14.4043-29.834 19.2383-37.5488 24.8047-37.8418C25.6836-37.8418 26.5625-37.8418 27.4414-37.8418C24.9512-32.666 23.8281-27.1484 23.8281-20.7031C23.8281-13.8184 26.123-7.66602 30.2734-2.7832C29.0527-2.7832 27.7344-2.7832 26.4648-2.7832C19.9219-3.07617 14.4043-10.8887 14.4043-20.3125Z"/>
  </g>
  <g id="Regular-S" transform="matrix(1 0 0 1 1401.7 696)">
   <path d="M6.83594-20.6055C6.83594-7.51953 15.2832 3.51562 25.6836 3.51562L38.5254 3.51562C43.7012 6.25 50 7.91016 57.0312 7.91016L62.4023 7.91016C67.1875 7.91016 71.4355 7.61719 74.2188 6.93359C79.7852 5.56641 83.252 1.66016 83.252-3.27148C83.252-4.19922 83.1543-5.0293 82.9102-5.85938C85.5469-7.91016 87.0117-10.9375 87.0117-14.1602C87.0117-15.6738 86.7676-17.1387 86.2305-18.457C87.9395-20.4102 88.9648-23.0957 88.9648-25.8789C88.9648-27.6367 88.5254-29.4922 87.793-31.0059C88.8672-32.6172 89.4531-34.7656 89.4531-37.0605C89.4531-43.1152 84.7168-47.8516 78.7598-47.8516L63.9648-47.8516C63.4277-47.8516 63.0371-48.0957 63.0371-48.584C63.0371-52.6367 69.6289-62.4512 69.6289-70.4102C69.6289-76.0254 65.7227-80.0781 60.3027-80.0781C56.2988-80.0781 53.6133-78.0273 51.0254-73.0469C46.3867-64.209 40.3809-55.3711 31.543-44.8242L24.2676-44.8242C14.5508-44.8242 6.83594-33.8379 6.83594-20.6055ZM30.1758-20.8496C30.1758-29.1504 32.0312-34.4238 37.2559-41.4062C43.0176-49.1211 51.123-58.4961 56.8848-70.0684C58.3496-72.9004 59.2773-73.5352 60.5469-73.5352C62.0605-73.5352 63.0371-72.4609 63.0371-70.4102C63.0371-64.209 56.4941-54.7363 56.4941-48.584C56.4941-44.043 60.2539-41.3086 64.9414-41.3086L78.7598-41.3086C81.1035-41.3086 82.8613-39.502 82.8613-37.0605C82.8613-35.2539 82.2754-34.1309 80.6641-32.5195C80.0293-31.8848 79.9805-31.2012 80.4688-30.5176C81.8359-28.418 82.373-27.3438 82.373-25.8789C82.373-24.0723 81.543-22.6074 79.6875-21.1914C78.7598-20.459 78.3691-19.4336 78.9551-18.3105C79.9316-16.3086 80.4199-15.5762 80.4199-14.1602C80.4199-12.1582 79.1016-10.6934 76.2695-9.13086C75.3906-8.64258 75.1953-7.91016 75.5371-7.17773C76.5625-4.54102 76.6602-4.24805 76.6602-3.27148C76.6602-1.51367 75.3906-0.146484 72.6562 0.537109C70.3613 1.12305 66.7969 1.36719 62.4023 1.31836L57.0801 1.26953C41.0156 1.12305 30.1758-7.91016 30.1758-20.8496ZM13.4277-20.6055C13.4277-30.2246 18.5547-38.2324 24.2676-38.2324L27.3438-38.2324C24.7559-33.0566 23.584-27.4414 23.584-20.9961C23.584-14.0137 25.9766-7.86133 30.2246-3.07617L25.6836-3.07617C19.1406-3.07617 13.4277-11.1328 13.4277-20.6055Z"/>
  </g>
  <g id="Light-S" transform="matrix(1 0 0 1 1106.7 696)">
   <path d="M6.83594-21.582C6.83594-8.88672 15.0879 1.5625 25 1.5625L37.5 1.5625C42.4316 4.15039 48.3887 5.71289 55.0293 5.71289L60.3027 5.71289C65.0391 5.71289 69.0918 5.41992 71.7285 4.73633C76.8066 3.51562 79.9805 0.0488281 79.9805-4.44336C79.9805-5.46875 79.7852-6.39648 79.4434-7.32422C82.0801-9.17969 83.6426-12.0117 83.6426-15.1367C83.6426-16.748 83.3008-18.3105 82.666-19.5801C84.4727-21.2402 85.5469-23.877 85.5469-26.6113C85.5469-28.4668 85.0586-30.4199 84.2285-31.7383C85.3516-33.2031 86.0352-35.3027 86.0352-37.6465C86.0352-43.0664 81.7871-47.3633 76.3672-47.3633L62.1582-47.3633C60.8887-47.3633 60.1074-47.9492 60.1074-48.9746C60.1074-53.2227 66.5527-62.793 66.5527-70.4102C66.5527-75.4395 63.0859-79.0527 58.252-79.0527C54.6875-79.0527 52.3438-77.1973 49.9512-72.6074C45.2637-63.623 40.1367-56.4453 30.8105-44.873L23.5352-44.873C14.3555-44.873 6.83594-34.4727 6.83594-21.582ZM28.1738-21.6797C28.1738-29.9316 30.0293-35.2539 35.2051-42.1875C40.918-49.8047 48.8281-58.9355 54.4922-70.3125C56.0059-73.1934 56.9824-73.9258 58.4473-73.9258C60.2539-73.9258 61.4746-72.6562 61.4746-70.4102C61.4746-64.209 54.9805-54.834 54.9805-48.9746C54.9805-44.8242 58.3984-42.2852 62.8418-42.2852L76.3672-42.2852C78.9551-42.2852 80.9082-40.2832 80.9082-37.6465C80.9082-35.8398 80.3711-34.6191 78.9551-33.252C78.1738-32.5684 78.0762-31.7383 78.7598-30.957C79.9316-29.3945 80.4199-28.125 80.4199-26.6113C80.4199-24.8047 79.5898-23.1934 77.8809-21.9727C76.9531-21.2402 76.5137-20.2637 77.1484-19.0918C78.0273-17.4805 78.5156-16.5527 78.5156-15.1367C78.5156-13.0371 77.1973-11.4258 74.5117-10.0586C73.6328-9.61914 73.3887-8.83789 73.8281-7.95898C74.707-5.85938 74.8535-5.41992 74.8535-4.44336C74.8535-2.44141 73.3887-0.927734 70.5078-0.195312C68.3105 0.390625 64.6973 0.634766 60.3516 0.585938L55.0781 0.537109C39.0625 0.390625 28.1738-8.69141 28.1738-21.6797ZM11.9629-21.582C11.9629-31.6895 17.4805-39.7461 23.5352-39.7461L27.4902-39.7461C24.3652-34.2285 23.0469-28.6621 23.0469-21.7773C23.0469-14.502 25.8301-8.1543 30.7617-3.51562L25-3.51562C18.0664-3.51562 11.9629-11.6699 11.9629-21.582Z"/>
  </g>
  <g id="Thin-S" transform="matrix(1 0 0 1 812.233 696)">
   <path d="M6.83594-22.8516C6.83594-10.6934 14.7949-0.976562 24.0234-0.976562L36.084-0.976562C40.6738 1.36719 46.2402 2.7832 52.4414 2.7832L57.5684 2.7832C62.207 2.7832 66.0156 2.53906 68.457 1.85547C72.9004 0.732422 75.5859-2.09961 75.5859-5.9082C75.5859-7.12891 75.3418-8.20312 74.8535-9.22852C77.5879-10.791 79.1992-13.4277 79.1992-16.4062C79.1992-18.1641 78.7598-19.873 77.9297-21.0449C79.8828-22.3633 81.0547-24.9023 81.0547-27.6367C81.0547-29.5898 80.4688-31.5918 79.4434-32.7148C80.7617-33.9844 81.543-36.0352 81.543-38.3789C81.543-43.0664 77.8809-46.7285 73.2422-46.7285L59.7656-46.7285C57.5195-46.7285 56.2012-47.8027 56.2012-49.4629C56.2012-54.0039 62.5-63.2812 62.5-70.4102C62.5-74.6582 59.6191-77.6855 55.5664-77.6855C52.5391-77.6855 50.5859-76.0742 48.5352-72.0703C43.75-62.8418 39.7949-57.8613 29.834-44.9219L22.6562-44.9219C14.0625-44.9219 6.83594-35.3027 6.83594-22.8516ZM25.4883-22.8027C25.4883-31.0059 27.3438-36.3281 32.5195-43.2129C38.1348-50.6836 45.752-59.5703 51.3672-70.6055C52.8809-73.6328 53.9062-74.5117 55.6152-74.5117C57.9102-74.5117 59.3262-72.9004 59.3262-70.4102C59.3262-64.1602 53.0273-54.9805 53.0273-49.4629C53.0273-45.8496 55.957-43.5547 60.0098-43.5547L73.2422-43.5547C76.1719-43.5547 78.3691-41.3086 78.3691-38.3789C78.3691-36.5723 77.832-35.2539 76.6602-34.2285C75.7324-33.4473 75.5859-32.4219 76.4648-31.5918C77.3926-30.6152 77.8809-29.1992 77.8809-27.6367C77.8809-25.6836 77.002-23.9258 75.4883-22.998C74.5117-22.3145 74.0723-21.3867 74.8047-20.1172C75.5371-18.9453 76.0254-17.8711 76.0254-16.4062C76.0254-14.209 74.707-12.4023 72.2656-11.2793C71.3379-10.8398 70.9961-10.0586 71.582-8.98438C72.2656-7.66602 72.4121-6.93359 72.4121-5.9082C72.4121-3.66211 70.8008-1.95312 67.7246-1.17188C65.5273-0.634766 61.9629-0.341797 57.5684-0.390625L52.4414-0.439453C36.4746-0.585938 25.4883-9.7168 25.4883-22.8027ZM10.0098-22.8516C10.0098-33.5449 16.0156-41.748 22.6562-41.748L27.6367-41.748C23.877-35.791 22.3145-30.2246 22.3145-22.8516C22.3145-15.1367 25.6836-8.59375 31.4453-4.15039L24.0234-4.15039C16.6504-4.15039 10.0098-12.4023 10.0098-22.8516Z"/>
  </g>
  <g id="Ultralight-S" transform="matrix(1 0 0 1 516.669 696)">
   <path d="M6.83594-23.5352C6.83594-11.6211 14.6484-2.29492 23.5352-2.29492L35.3516-2.29492C39.7949-0.0488281 45.1172 1.26953 51.0742 1.26953L56.1523 1.26953C60.7422 1.26953 64.4043 1.02539 66.7969 0.390625C70.8496-0.683594 73.3887-3.22266 73.3887-6.68945C73.3887-8.00781 73.0469-9.17969 72.4609-10.2051C75.2441-11.6211 76.9043-14.1602 76.9043-17.041C76.9043-18.9453 76.416-20.6543 75.4883-21.7773C77.4902-22.9004 78.7598-25.4395 78.7598-28.1738C78.7598-30.1758 78.0762-32.1777 77.002-33.252C78.418-34.375 79.248-36.377 79.248-38.7695C79.248-43.0176 75.8789-46.4355 71.6797-46.4355L58.5449-46.4355C55.8105-46.4355 54.1504-47.7051 54.1504-49.707C54.1504-54.3945 60.4492-63.5254 60.4492-70.4102C60.4492-74.2676 57.8125-76.9531 54.1504-76.9531C51.416-76.9531 49.707-75.5371 47.7539-71.7285C43.0176-62.4512 39.6484-58.6426 29.2969-44.9707L22.168-44.9707C13.916-44.9707 6.83594-35.7422 6.83594-23.5352ZM24.1211-23.3887C24.1211-31.543 25.9766-36.8652 31.1035-43.75C36.7188-51.1719 44.1895-59.9121 49.7559-70.752C51.2695-73.8281 52.3438-74.8047 54.1992-74.8047C56.6895-74.8047 58.252-73.0469 58.252-70.4102C58.252-64.1602 52.002-55.0781 52.002-49.707C52.002-46.3867 54.6875-44.2383 58.5938-44.2383L71.6797-44.2383C74.707-44.2383 77.0508-41.8457 77.0508-38.7695C77.0508-36.9629 76.5137-35.5469 75.4883-34.7656C74.4629-33.8867 74.3164-32.7637 75.293-31.9336C76.0742-31.25 76.5625-29.7363 76.5625-28.1738C76.5625-26.1719 75.6348-24.3164 74.2676-23.5352C73.2422-22.8516 72.8027-21.9238 73.6328-20.6543C74.2676-19.7266 74.707-18.5547 74.707-17.041C74.707-14.7949 73.3887-12.9395 71.0938-11.9141C70.166-11.4746 69.7754-10.6934 70.4102-9.52148C70.9961-8.59375 71.1914-7.71484 71.1914-6.68945C71.1914-4.29688 69.4336-2.49023 66.2598-1.70898C64.1113-1.17188 60.5957-0.878906 56.1523-0.927734L51.0742-0.976562C35.1562-1.12305 24.1211-10.2539 24.1211-23.3887ZM9.0332-23.5352C9.0332-34.5215 15.2832-42.7734 22.168-42.7734L27.7832-42.7734C23.584-36.5723 21.9727-31.0547 21.9727-23.3887C21.9727-15.4297 25.5859-8.78906 31.7871-4.49219L23.5352-4.49219C15.8691-4.49219 9.0332-12.793 9.0332-23.5352Z"/>
  </g>
 </g>
</svg>
